<svg width="440" height="512" viewBox="0 0 440 512" fill="none" xmlns="http://www.w3.org/2000/svg">
<path d="M159 512C148.312 512 137.625 512 126.465 511.604C125.592 510.811 125.26 510.267 124.779 510.037C118.303 506.936 111.431 504.476 105.391 500.687C92.1868 492.404 81.896 480.935 72.2063 468.816C58.7503 451.986 47.064 434.003 37.0988 414.981C23.7161 389.435 13.1137 362.729 7.77509 334.259C4.99637 319.441 2.24914 304.497 1.26065 289.493C0.158439 272.763 0.859015 255.955 3.82861 239.239C6.43767 224.553 10.1205 210.277 16.6678 196.955C24.8947 180.215 36.265 165.78 50.1588 153.176C63.2946 141.26 78.0241 132.225 94.5302 126.039C109.126 120.569 124.258 118.49 139.813 120.021C144.339 120.466 149 120.602 153.324 121.841C167.34 125.858 181.379 129.889 195.129 134.716C214.55 141.535 233.973 143.743 253.771 136.961C275.382 129.558 296.27 119.324 319.919 120.014C328.967 120.277 338.172 120.071 347.008 121.694C365.111 125.019 381.506 132.884 396.06 144.108C403.719 150.014 410.736 156.783 417.791 163.43C420.404 165.892 422.294 169.12 424.57 172.071C390.21 191.16 369.511 222.763 367.268 258.221C363.769 313.55 388.865 352.56 438.971 375.76C438.968 376.264 439.138 376.845 438.943 377.251C428.751 398.406 418.824 419.674 405.483 439.166C394.432 455.312 383.419 471.375 369.398 485.222C358.251 496.23 346.535 506.035 330.972 510.104C330.514 510.223 330.318 511.345 330 512C319.979 512 309.958 512 299.763 511.671C295.918 509.869 292.215 508.466 288.579 506.909C273.842 500.596 259.556 493.409 243.084 491.761C228.851 490.337 214.797 490.47 201.284 494.557C187.078 498.854 173.389 504.865 159.505 510.205C159.158 510.338 159.16 511.381 159 512Z" fill="white"/>
<path d="M316.535 0C317.516 17.3855 316.894 34.5471 310.107 51.0245C305.237 62.8476 299.232 73.9861 291.391 83.993C278.266 100.743 261.46 112.741 241.177 119.16C232.022 122.057 222.282 123.105 212.441 125.065C208.12 100.339 214.063 78.7907 225.928 58.8994C231.701 49.2213 238.756 39.9186 246.819 32.0786C262.167 17.1539 280.46 6.72927 301.63 1.95183C302.344 1.79077 302.942 1.11878 303.297 0.342471C307.357 0 311.714 0 316.535 0Z" fill="white"/>
</svg>
