<svg xmlns="http://www.w3.org/2000/svg" version="1.1" xmlns:xlink="http://www.w3.org/1999/xlink" xmlns:svgjs="http://svgjs.dev/svgjs" viewBox="0 0 800 800" width="800" height="800"><g stroke-width="2.75" stroke="#ab7aae0f" fill="none"><circle r="6.052631578947368" cx="0" cy="0" fill="none"></circle><circle r="6.052631578947368" cx="47.05882352941177" cy="0" fill="none"></circle><circle r="6.052631578947368" cx="94.11764705882354" cy="0" fill="none"></circle><circle r="6.052631578947368" cx="141.1764705882353" cy="0" fill="none"></circle><circle r="6.052631578947368" cx="188.23529411764707" cy="0" fill="none"></circle><circle r="6.052631578947368" cx="235.29411764705884" cy="0" fill="none"></circle><circle r="6.052631578947368" cx="282.3529411764706" cy="0" fill="none"></circle><circle r="6.052631578947368" cx="329.4117647058824" cy="0" fill="none"></circle><circle r="6.052631578947368" cx="376.47058823529414" cy="0" fill="none"></circle><circle r="6.052631578947368" cx="423.5294117647059" cy="0" fill="none"></circle><circle r="6.052631578947368" cx="470.5882352941177" cy="0" fill="none"></circle><circle r="6.052631578947368" cx="517.6470588235295" cy="0" fill="none"></circle><circle r="6.052631578947368" cx="564.7058823529412" cy="0" fill="none"></circle><circle r="6.052631578947368" cx="611.7647058823529" cy="0" fill="none"></circle><circle r="6.052631578947368" cx="658.8235294117646" cy="0" fill="none"></circle><circle r="6.052631578947368" cx="705.8823529411764" cy="0" fill="none"></circle><circle r="6.052631578947368" cx="752.9411764705881" cy="0" fill="none"></circle><circle r="6.052631578947368" cx="799.9999999999998" cy="0" fill="none"></circle><circle r="6.052631578947368" cx="0" cy="53.333333333333336" fill="none"></circle><circle r="6.052631578947368" cx="47.05882352941177" cy="53.333333333333336" fill="none"></circle><circle r="6.052631578947368" cx="94.11764705882354" cy="53.333333333333336" fill="none"></circle><circle r="6.052631578947368" cx="141.1764705882353" cy="53.333333333333336" fill="none"></circle><circle r="6.052631578947368" cx="188.23529411764707" cy="53.333333333333336" fill="none"></circle><circle r="6.052631578947368" cx="235.29411764705884" cy="53.333333333333336" fill="none"></circle><circle r="6.052631578947368" cx="282.3529411764706" cy="53.333333333333336" fill="none"></circle><circle r="6.052631578947368" cx="329.4117647058824" cy="53.333333333333336" fill="none"></circle><circle r="6.052631578947368" cx="376.47058823529414" cy="53.333333333333336" fill="none"></circle><circle r="6.052631578947368" cx="423.5294117647059" cy="53.333333333333336" fill="none"></circle><circle r="6.052631578947368" cx="470.5882352941177" cy="53.333333333333336" fill="none"></circle><circle r="6.052631578947368" cx="517.6470588235295" cy="53.333333333333336" fill="none"></circle><circle r="6.052631578947368" cx="564.7058823529412" cy="53.333333333333336" fill="none"></circle><circle r="6.052631578947368" cx="611.7647058823529" cy="53.333333333333336" fill="none"></circle><circle r="6.052631578947368" cx="658.8235294117646" cy="53.333333333333336" fill="none"></circle><circle r="6.052631578947368" cx="705.8823529411764" cy="53.333333333333336" fill="none"></circle><circle r="6.052631578947368" cx="752.9411764705881" cy="53.333333333333336" fill="none"></circle><circle r="6.052631578947368" cx="799.9999999999998" cy="53.333333333333336" fill="none"></circle><circle r="6.052631578947368" cx="0" cy="106.66666666666667" fill="none"></circle><circle r="6.052631578947368" cx="47.05882352941177" cy="106.66666666666667" fill="none"></circle><circle r="6.052631578947368" cx="94.11764705882354" cy="106.66666666666667" fill="none"></circle><circle r="6.052631578947368" cx="141.1764705882353" cy="106.66666666666667" fill="none"></circle><circle r="6.052631578947368" cx="188.23529411764707" cy="106.66666666666667" fill="none"></circle><circle r="6.052631578947368" cx="235.29411764705884" cy="106.66666666666667" fill="none"></circle><circle r="6.052631578947368" cx="282.3529411764706" cy="106.66666666666667" fill="none"></circle><circle r="6.052631578947368" cx="329.4117647058824" cy="106.66666666666667" fill="none"></circle><circle r="6.052631578947368" cx="376.47058823529414" cy="106.66666666666667" fill="none"></circle><circle r="6.052631578947368" cx="423.5294117647059" cy="106.66666666666667" fill="none"></circle><circle r="6.052631578947368" cx="470.5882352941177" cy="106.66666666666667" fill="none"></circle><circle r="6.052631578947368" cx="517.6470588235295" cy="106.66666666666667" fill="none"></circle><circle r="6.052631578947368" cx="564.7058823529412" cy="106.66666666666667" fill="none"></circle><circle r="6.052631578947368" cx="611.7647058823529" cy="106.66666666666667" fill="none"></circle><circle r="6.052631578947368" cx="658.8235294117646" cy="106.66666666666667" fill="none"></circle><circle r="6.052631578947368" cx="705.8823529411764" cy="106.66666666666667" fill="none"></circle><circle r="6.052631578947368" cx="752.9411764705881" cy="106.66666666666667" fill="none"></circle><circle r="6.052631578947368" cx="799.9999999999998" cy="106.66666666666667" fill="none"></circle><circle r="6.052631578947368" cx="0" cy="160" fill="none"></circle><circle r="6.052631578947368" cx="47.05882352941177" cy="160" fill="none"></circle><circle r="6.052631578947368" cx="94.11764705882354" cy="160" fill="none"></circle><circle r="6.052631578947368" cx="141.1764705882353" cy="160" fill="none"></circle><circle r="6.052631578947368" cx="188.23529411764707" cy="160" fill="none"></circle><circle r="6.052631578947368" cx="235.29411764705884" cy="160" fill="none"></circle><circle r="6.052631578947368" cx="282.3529411764706" cy="160" fill="none"></circle><circle r="6.052631578947368" cx="329.4117647058824" cy="160" fill="none"></circle><circle r="6.052631578947368" cx="376.47058823529414" cy="160" fill="none"></circle><circle r="6.052631578947368" cx="423.5294117647059" cy="160" fill="none"></circle><circle r="6.052631578947368" cx="470.5882352941177" cy="160" fill="none"></circle><circle r="6.052631578947368" cx="517.6470588235295" cy="160" fill="none"></circle><circle r="6.052631578947368" cx="564.7058823529412" cy="160" fill="none"></circle><circle r="6.052631578947368" cx="611.7647058823529" cy="160" fill="none"></circle><circle r="6.052631578947368" cx="658.8235294117646" cy="160" fill="none"></circle><circle r="6.052631578947368" cx="705.8823529411764" cy="160" fill="none"></circle><circle r="6.052631578947368" cx="752.9411764705881" cy="160" fill="none"></circle><circle r="6.052631578947368" cx="799.9999999999998" cy="160" fill="none"></circle><circle r="6.052631578947368" cx="0" cy="213.33333333333334" fill="none"></circle><circle r="6.052631578947368" cx="47.05882352941177" cy="213.33333333333334" fill="none"></circle><circle r="6.052631578947368" cx="94.11764705882354" cy="213.33333333333334" fill="none"></circle><circle r="6.052631578947368" cx="141.1764705882353" cy="213.33333333333334" fill="none"></circle><circle r="6.052631578947368" cx="188.23529411764707" cy="213.33333333333334" fill="none"></circle><circle r="6.052631578947368" cx="235.29411764705884" cy="213.33333333333334" fill="none"></circle><circle r="6.052631578947368" cx="282.3529411764706" cy="213.33333333333334" fill="none"></circle><circle r="6.052631578947368" cx="329.4117647058824" cy="213.33333333333334" fill="none"></circle><circle r="6.052631578947368" cx="376.47058823529414" cy="213.33333333333334" fill="none"></circle><circle r="6.052631578947368" cx="423.5294117647059" cy="213.33333333333334" fill="none"></circle><circle r="6.052631578947368" cx="470.5882352941177" cy="213.33333333333334" fill="none"></circle><circle r="6.052631578947368" cx="517.6470588235295" cy="213.33333333333334" fill="none"></circle><circle r="6.052631578947368" cx="564.7058823529412" cy="213.33333333333334" fill="none"></circle><circle r="6.052631578947368" cx="611.7647058823529" cy="213.33333333333334" fill="none"></circle><circle r="6.052631578947368" cx="658.8235294117646" cy="213.33333333333334" fill="none"></circle><circle r="6.052631578947368" cx="705.8823529411764" cy="213.33333333333334" fill="none"></circle><circle r="6.052631578947368" cx="752.9411764705881" cy="213.33333333333334" fill="none"></circle><circle r="6.052631578947368" cx="799.9999999999998" cy="213.33333333333334" fill="none"></circle><circle r="6.052631578947368" cx="0" cy="266.6666666666667" fill="none"></circle><circle r="6.052631578947368" cx="47.05882352941177" cy="266.6666666666667" fill="none"></circle><circle r="6.052631578947368" cx="94.11764705882354" cy="266.6666666666667" fill="none"></circle><circle r="6.052631578947368" cx="141.1764705882353" cy="266.6666666666667" fill="none"></circle><circle r="6.052631578947368" cx="188.23529411764707" cy="266.6666666666667" fill="none"></circle><circle r="6.052631578947368" cx="235.29411764705884" cy="266.6666666666667" fill="none"></circle><circle r="6.052631578947368" cx="282.3529411764706" cy="266.6666666666667" fill="none"></circle><circle r="6.052631578947368" cx="329.4117647058824" cy="266.6666666666667" fill="none"></circle><circle r="6.052631578947368" cx="376.47058823529414" cy="266.6666666666667" fill="none"></circle><circle r="6.052631578947368" cx="423.5294117647059" cy="266.6666666666667" fill="none"></circle><circle r="6.052631578947368" cx="470.5882352941177" cy="266.6666666666667" fill="none"></circle><circle r="6.052631578947368" cx="517.6470588235295" cy="266.6666666666667" fill="none"></circle><circle r="6.052631578947368" cx="564.7058823529412" cy="266.6666666666667" fill="none"></circle><circle r="6.052631578947368" cx="611.7647058823529" cy="266.6666666666667" fill="none"></circle><circle r="6.052631578947368" cx="658.8235294117646" cy="266.6666666666667" fill="none"></circle><circle r="6.052631578947368" cx="705.8823529411764" cy="266.6666666666667" fill="none"></circle><circle r="6.052631578947368" cx="752.9411764705881" cy="266.6666666666667" fill="none"></circle><circle r="6.052631578947368" cx="799.9999999999998" cy="266.6666666666667" fill="none"></circle><circle r="6.052631578947368" cx="0" cy="320" fill="none"></circle><circle r="6.052631578947368" cx="47.05882352941177" cy="320" fill="none"></circle><circle r="6.052631578947368" cx="94.11764705882354" cy="320" fill="none"></circle><circle r="6.052631578947368" cx="141.1764705882353" cy="320" fill="none"></circle><circle r="6.052631578947368" cx="188.23529411764707" cy="320" fill="none"></circle><circle r="6.052631578947368" cx="235.29411764705884" cy="320" fill="none"></circle><circle r="6.052631578947368" cx="282.3529411764706" cy="320" fill="none"></circle><circle r="6.052631578947368" cx="329.4117647058824" cy="320" fill="none"></circle><circle r="6.052631578947368" cx="376.47058823529414" cy="320" fill="none"></circle><circle r="6.052631578947368" cx="423.5294117647059" cy="320" fill="none"></circle><circle r="6.052631578947368" cx="470.5882352941177" cy="320" fill="none"></circle><circle r="6.052631578947368" cx="517.6470588235295" cy="320" fill="none"></circle><circle r="6.052631578947368" cx="564.7058823529412" cy="320" fill="none"></circle><circle r="6.052631578947368" cx="611.7647058823529" cy="320" fill="none"></circle><circle r="6.052631578947368" cx="658.8235294117646" cy="320" fill="none"></circle><circle r="6.052631578947368" cx="705.8823529411764" cy="320" fill="none"></circle><circle r="6.052631578947368" cx="752.9411764705881" cy="320" fill="none"></circle><circle r="6.052631578947368" cx="799.9999999999998" cy="320" fill="none"></circle><circle r="6.052631578947368" cx="0" cy="373.3333333333333" fill="none"></circle><circle r="6.052631578947368" cx="47.05882352941177" cy="373.3333333333333" fill="none"></circle><circle r="6.052631578947368" cx="94.11764705882354" cy="373.3333333333333" fill="none"></circle><circle r="6.052631578947368" cx="141.1764705882353" cy="373.3333333333333" fill="none"></circle><circle r="6.052631578947368" cx="188.23529411764707" cy="373.3333333333333" fill="none"></circle><circle r="6.052631578947368" cx="235.29411764705884" cy="373.3333333333333" fill="none"></circle><circle r="6.052631578947368" cx="282.3529411764706" cy="373.3333333333333" fill="none"></circle><circle r="6.052631578947368" cx="329.4117647058824" cy="373.3333333333333" fill="none"></circle><circle r="6.052631578947368" cx="376.47058823529414" cy="373.3333333333333" fill="none"></circle><circle r="6.052631578947368" cx="423.5294117647059" cy="373.3333333333333" fill="none"></circle><circle r="6.052631578947368" cx="470.5882352941177" cy="373.3333333333333" fill="none"></circle><circle r="6.052631578947368" cx="517.6470588235295" cy="373.3333333333333" fill="none"></circle><circle r="6.052631578947368" cx="564.7058823529412" cy="373.3333333333333" fill="none"></circle><circle r="6.052631578947368" cx="611.7647058823529" cy="373.3333333333333" fill="none"></circle><circle r="6.052631578947368" cx="658.8235294117646" cy="373.3333333333333" fill="none"></circle><circle r="6.052631578947368" cx="705.8823529411764" cy="373.3333333333333" fill="none"></circle><circle r="6.052631578947368" cx="752.9411764705881" cy="373.3333333333333" fill="none"></circle><circle r="6.052631578947368" cx="799.9999999999998" cy="373.3333333333333" fill="none"></circle><circle r="6.052631578947368" cx="0" cy="426.66666666666663" fill="none"></circle><circle r="6.052631578947368" cx="47.05882352941177" cy="426.66666666666663" fill="none"></circle><circle r="6.052631578947368" cx="94.11764705882354" cy="426.66666666666663" fill="none"></circle><circle r="6.052631578947368" cx="141.1764705882353" cy="426.66666666666663" fill="none"></circle><circle r="6.052631578947368" cx="188.23529411764707" cy="426.66666666666663" fill="none"></circle><circle r="6.052631578947368" cx="235.29411764705884" cy="426.66666666666663" fill="none"></circle><circle r="6.052631578947368" cx="282.3529411764706" cy="426.66666666666663" fill="none"></circle><circle r="6.052631578947368" cx="329.4117647058824" cy="426.66666666666663" fill="none"></circle><circle r="6.052631578947368" cx="376.47058823529414" cy="426.66666666666663" fill="none"></circle><circle r="6.052631578947368" cx="423.5294117647059" cy="426.66666666666663" fill="none"></circle><circle r="6.052631578947368" cx="470.5882352941177" cy="426.66666666666663" fill="none"></circle><circle r="6.052631578947368" cx="517.6470588235295" cy="426.66666666666663" fill="none"></circle><circle r="6.052631578947368" cx="564.7058823529412" cy="426.66666666666663" fill="none"></circle><circle r="6.052631578947368" cx="611.7647058823529" cy="426.66666666666663" fill="none"></circle><circle r="6.052631578947368" cx="658.8235294117646" cy="426.66666666666663" fill="none"></circle><circle r="6.052631578947368" cx="705.8823529411764" cy="426.66666666666663" fill="none"></circle><circle r="6.052631578947368" cx="752.9411764705881" cy="426.66666666666663" fill="none"></circle><circle r="6.052631578947368" cx="799.9999999999998" cy="426.66666666666663" fill="none"></circle><circle r="6.052631578947368" cx="0" cy="479.99999999999994" fill="none"></circle><circle r="6.052631578947368" cx="47.05882352941177" cy="479.99999999999994" fill="none"></circle><circle r="6.052631578947368" cx="94.11764705882354" cy="479.99999999999994" fill="none"></circle><circle r="6.052631578947368" cx="141.1764705882353" cy="479.99999999999994" fill="none"></circle><circle r="6.052631578947368" cx="188.23529411764707" cy="479.99999999999994" fill="none"></circle><circle r="6.052631578947368" cx="235.29411764705884" cy="479.99999999999994" fill="none"></circle><circle r="6.052631578947368" cx="282.3529411764706" cy="479.99999999999994" fill="none"></circle><circle r="6.052631578947368" cx="329.4117647058824" cy="479.99999999999994" fill="none"></circle><circle r="6.052631578947368" cx="376.47058823529414" cy="479.99999999999994" fill="none"></circle><circle r="6.052631578947368" cx="423.5294117647059" cy="479.99999999999994" fill="none"></circle><circle r="6.052631578947368" cx="470.5882352941177" cy="479.99999999999994" fill="none"></circle><circle r="6.052631578947368" cx="517.6470588235295" cy="479.99999999999994" fill="none"></circle><circle r="6.052631578947368" cx="564.7058823529412" cy="479.99999999999994" fill="none"></circle><circle r="6.052631578947368" cx="611.7647058823529" cy="479.99999999999994" fill="none"></circle><circle r="6.052631578947368" cx="658.8235294117646" cy="479.99999999999994" fill="none"></circle><circle r="6.052631578947368" cx="705.8823529411764" cy="479.99999999999994" fill="none"></circle><circle r="6.052631578947368" cx="752.9411764705881" cy="479.99999999999994" fill="none"></circle><circle r="6.052631578947368" cx="799.9999999999998" cy="479.99999999999994" fill="none"></circle><circle r="6.052631578947368" cx="0" cy="533.3333333333333" fill="none"></circle><circle r="6.052631578947368" cx="47.05882352941177" cy="533.3333333333333" fill="none"></circle><circle r="6.052631578947368" cx="94.11764705882354" cy="533.3333333333333" fill="none"></circle><circle r="6.052631578947368" cx="141.1764705882353" cy="533.3333333333333" fill="none"></circle><circle r="6.052631578947368" cx="188.23529411764707" cy="533.3333333333333" fill="none"></circle><circle r="6.052631578947368" cx="235.29411764705884" cy="533.3333333333333" fill="none"></circle><circle r="6.052631578947368" cx="282.3529411764706" cy="533.3333333333333" fill="none"></circle><circle r="6.052631578947368" cx="329.4117647058824" cy="533.3333333333333" fill="none"></circle><circle r="6.052631578947368" cx="376.47058823529414" cy="533.3333333333333" fill="none"></circle><circle r="6.052631578947368" cx="423.5294117647059" cy="533.3333333333333" fill="none"></circle><circle r="6.052631578947368" cx="470.5882352941177" cy="533.3333333333333" fill="none"></circle><circle r="6.052631578947368" cx="517.6470588235295" cy="533.3333333333333" fill="none"></circle><circle r="6.052631578947368" cx="564.7058823529412" cy="533.3333333333333" fill="none"></circle><circle r="6.052631578947368" cx="611.7647058823529" cy="533.3333333333333" fill="none"></circle><circle r="6.052631578947368" cx="658.8235294117646" cy="533.3333333333333" fill="none"></circle><circle r="6.052631578947368" cx="705.8823529411764" cy="533.3333333333333" fill="none"></circle><circle r="6.052631578947368" cx="752.9411764705881" cy="533.3333333333333" fill="none"></circle><circle r="6.052631578947368" cx="799.9999999999998" cy="533.3333333333333" fill="none"></circle><circle r="6.052631578947368" cx="0" cy="586.6666666666666" fill="none"></circle><circle r="6.052631578947368" cx="47.05882352941177" cy="586.6666666666666" fill="none"></circle><circle r="6.052631578947368" cx="94.11764705882354" cy="586.6666666666666" fill="none"></circle><circle r="6.052631578947368" cx="141.1764705882353" cy="586.6666666666666" fill="none"></circle><circle r="6.052631578947368" cx="188.23529411764707" cy="586.6666666666666" fill="none"></circle><circle r="6.052631578947368" cx="235.29411764705884" cy="586.6666666666666" fill="none"></circle><circle r="6.052631578947368" cx="282.3529411764706" cy="586.6666666666666" fill="none"></circle><circle r="6.052631578947368" cx="329.4117647058824" cy="586.6666666666666" fill="none"></circle><circle r="6.052631578947368" cx="376.47058823529414" cy="586.6666666666666" fill="none"></circle><circle r="6.052631578947368" cx="423.5294117647059" cy="586.6666666666666" fill="none"></circle><circle r="6.052631578947368" cx="470.5882352941177" cy="586.6666666666666" fill="none"></circle><circle r="6.052631578947368" cx="517.6470588235295" cy="586.6666666666666" fill="none"></circle><circle r="6.052631578947368" cx="564.7058823529412" cy="586.6666666666666" fill="none"></circle><circle r="6.052631578947368" cx="611.7647058823529" cy="586.6666666666666" fill="none"></circle><circle r="6.052631578947368" cx="658.8235294117646" cy="586.6666666666666" fill="none"></circle><circle r="6.052631578947368" cx="705.8823529411764" cy="586.6666666666666" fill="none"></circle><circle r="6.052631578947368" cx="752.9411764705881" cy="586.6666666666666" fill="none"></circle><circle r="6.052631578947368" cx="799.9999999999998" cy="586.6666666666666" fill="none"></circle><circle r="6.052631578947368" cx="0" cy="640" fill="none"></circle><circle r="6.052631578947368" cx="47.05882352941177" cy="640" fill="none"></circle><circle r="6.052631578947368" cx="94.11764705882354" cy="640" fill="none"></circle><circle r="6.052631578947368" cx="141.1764705882353" cy="640" fill="none"></circle><circle r="6.052631578947368" cx="188.23529411764707" cy="640" fill="none"></circle><circle r="6.052631578947368" cx="235.29411764705884" cy="640" fill="none"></circle><circle r="6.052631578947368" cx="282.3529411764706" cy="640" fill="none"></circle><circle r="6.052631578947368" cx="329.4117647058824" cy="640" fill="none"></circle><circle r="6.052631578947368" cx="376.47058823529414" cy="640" fill="none"></circle><circle r="6.052631578947368" cx="423.5294117647059" cy="640" fill="none"></circle><circle r="6.052631578947368" cx="470.5882352941177" cy="640" fill="none"></circle><circle r="6.052631578947368" cx="517.6470588235295" cy="640" fill="none"></circle><circle r="6.052631578947368" cx="564.7058823529412" cy="640" fill="none"></circle><circle r="6.052631578947368" cx="611.7647058823529" cy="640" fill="none"></circle><circle r="6.052631578947368" cx="658.8235294117646" cy="640" fill="none"></circle><circle r="6.052631578947368" cx="705.8823529411764" cy="640" fill="none"></circle><circle r="6.052631578947368" cx="752.9411764705881" cy="640" fill="none"></circle><circle r="6.052631578947368" cx="799.9999999999998" cy="640" fill="none"></circle><circle r="6.052631578947368" cx="0" cy="693.3333333333334" fill="none"></circle><circle r="6.052631578947368" cx="47.05882352941177" cy="693.3333333333334" fill="none"></circle><circle r="6.052631578947368" cx="94.11764705882354" cy="693.3333333333334" fill="none"></circle><circle r="6.052631578947368" cx="141.1764705882353" cy="693.3333333333334" fill="none"></circle><circle r="6.052631578947368" cx="188.23529411764707" cy="693.3333333333334" fill="none"></circle><circle r="6.052631578947368" cx="235.29411764705884" cy="693.3333333333334" fill="none"></circle><circle r="6.052631578947368" cx="282.3529411764706" cy="693.3333333333334" fill="none"></circle><circle r="6.052631578947368" cx="329.4117647058824" cy="693.3333333333334" fill="none"></circle><circle r="6.052631578947368" cx="376.47058823529414" cy="693.3333333333334" fill="none"></circle><circle r="6.052631578947368" cx="423.5294117647059" cy="693.3333333333334" fill="none"></circle><circle r="6.052631578947368" cx="470.5882352941177" cy="693.3333333333334" fill="none"></circle><circle r="6.052631578947368" cx="517.6470588235295" cy="693.3333333333334" fill="none"></circle><circle r="6.052631578947368" cx="564.7058823529412" cy="693.3333333333334" fill="none"></circle><circle r="6.052631578947368" cx="611.7647058823529" cy="693.3333333333334" fill="none"></circle><circle r="6.052631578947368" cx="658.8235294117646" cy="693.3333333333334" fill="none"></circle><circle r="6.052631578947368" cx="705.8823529411764" cy="693.3333333333334" fill="none"></circle><circle r="6.052631578947368" cx="752.9411764705881" cy="693.3333333333334" fill="none"></circle><circle r="6.052631578947368" cx="799.9999999999998" cy="693.3333333333334" fill="none"></circle><circle r="6.052631578947368" cx="0" cy="746.6666666666667" fill="none"></circle><circle r="6.052631578947368" cx="47.05882352941177" cy="746.6666666666667" fill="none"></circle><circle r="6.052631578947368" cx="94.11764705882354" cy="746.6666666666667" fill="none"></circle><circle r="6.052631578947368" cx="141.1764705882353" cy="746.6666666666667" fill="none"></circle><circle r="6.052631578947368" cx="188.23529411764707" cy="746.6666666666667" fill="none"></circle><circle r="6.052631578947368" cx="235.29411764705884" cy="746.6666666666667" fill="none"></circle><circle r="6.052631578947368" cx="282.3529411764706" cy="746.6666666666667" fill="none"></circle><circle r="6.052631578947368" cx="329.4117647058824" cy="746.6666666666667" fill="none"></circle><circle r="6.052631578947368" cx="376.47058823529414" cy="746.6666666666667" fill="none"></circle><circle r="6.052631578947368" cx="423.5294117647059" cy="746.6666666666667" fill="none"></circle><circle r="6.052631578947368" cx="470.5882352941177" cy="746.6666666666667" fill="none"></circle><circle r="6.052631578947368" cx="517.6470588235295" cy="746.6666666666667" fill="none"></circle><circle r="6.052631578947368" cx="564.7058823529412" cy="746.6666666666667" fill="none"></circle><circle r="6.052631578947368" cx="611.7647058823529" cy="746.6666666666667" fill="none"></circle><circle r="6.052631578947368" cx="658.8235294117646" cy="746.6666666666667" fill="none"></circle><circle r="6.052631578947368" cx="705.8823529411764" cy="746.6666666666667" fill="none"></circle><circle r="6.052631578947368" cx="752.9411764705881" cy="746.6666666666667" fill="none"></circle><circle r="6.052631578947368" cx="799.9999999999998" cy="746.6666666666667" fill="none"></circle><circle r="6.052631578947368" cx="0" cy="800.0000000000001" fill="none"></circle><circle r="6.052631578947368" cx="47.05882352941177" cy="800.0000000000001" fill="none"></circle><circle r="6.052631578947368" cx="94.11764705882354" cy="800.0000000000001" fill="none"></circle><circle r="6.052631578947368" cx="141.1764705882353" cy="800.0000000000001" fill="none"></circle><circle r="6.052631578947368" cx="188.23529411764707" cy="800.0000000000001" fill="none"></circle><circle r="6.052631578947368" cx="235.29411764705884" cy="800.0000000000001" fill="none"></circle><circle r="6.052631578947368" cx="282.3529411764706" cy="800.0000000000001" fill="none"></circle><circle r="6.052631578947368" cx="329.4117647058824" cy="800.0000000000001" fill="none"></circle><circle r="6.052631578947368" cx="376.47058823529414" cy="800.0000000000001" fill="none"></circle><circle r="6.052631578947368" cx="423.5294117647059" cy="800.0000000000001" fill="none"></circle><circle r="6.052631578947368" cx="470.5882352941177" cy="800.0000000000001" fill="none"></circle><circle r="6.052631578947368" cx="517.6470588235295" cy="800.0000000000001" fill="none"></circle><circle r="6.052631578947368" cx="564.7058823529412" cy="800.0000000000001" fill="none"></circle><circle r="6.052631578947368" cx="611.7647058823529" cy="800.0000000000001" fill="none"></circle><circle r="6.052631578947368" cx="658.8235294117646" cy="800.0000000000001" fill="none"></circle><circle r="6.052631578947368" cx="705.8823529411764" cy="800.0000000000001" fill="none"></circle><circle r="6.052631578947368" cx="752.9411764705881" cy="800.0000000000001" fill="none"></circle><circle r="6.052631578947368" cx="799.9999999999998" cy="800.0000000000001" fill="none"></circle></g></svg>