<svg width="365" height="412" viewBox="0 0 365 412" fill="none" xmlns="http://www.w3.org/2000/svg">
<path d="M1.16603 141.003C1.11148 106.511 0.78879 72.0161 1.17264 37.5288C1.28184 27.7179 4.18082 18.2436 12.6487 11.4944C22.9031 21.645 32.6379 31.6973 42.4928 41.6306C96.9379 96.5089 151.412 151.358 205.724 206.496C183.656 228.672 161.741 250.569 139.478 272.277C137.399 270.537 135.59 269.065 133.948 267.425C93.0804 226.587 52.2002 185.76 11.4376 144.816C8.40933 141.774 5.63146 139.495 1.16603 141.003Z" fill="#00CAFF"/>
<path d="M139.826 272.466C161.741 250.569 183.656 228.672 205.907 206.49C206.243 206.205 206.606 206.155 206.791 206.447C229.033 228.829 251.098 250.913 273.136 273.023C274.647 274.539 275.965 276.248 277.373 277.867C265.451 284.834 253.568 291.868 241.598 298.752C223.12 309.378 204.543 319.832 186.082 330.489C170.727 339.353 155.473 348.392 140.187 357.376C119.012 369.82 97.8703 382.32 76.6698 394.72C69.0872 399.155 61.4993 403.61 53.6939 407.629C40.9672 414.181 23.5693 411.418 13.02 400.915C21.6116 391.551 30.2658 382.83 38.8887 374.077C51.3473 361.432 63.7832 348.764 76.5336 335.981C97.8343 314.726 118.83 293.596 139.826 272.466Z" fill="#F63548"/>
<path d="M206.606 206.155C206.606 206.155 206.243 206.204 206.06 206.211C151.412 151.358 96.9379 96.5089 42.4928 41.6305C32.6379 31.6973 22.903 21.6449 12.9417 11.3521C23.4156 -0.639597 43.3029 -2.45942 58.2522 6.66356C76.7221 17.935 95.5395 28.6362 114.179 39.631C133.772 51.1884 153.277 62.8959 172.924 74.361C189.08 83.7892 205.414 92.9112 221.62 102.256C238.53 112.007 255.374 121.872 272.267 131.654C273.956 132.632 275.779 133.377 277.44 134.686C253.762 158.813 230.184 182.484 206.606 206.155Z" fill="#00F076"/>
<path d="M139.478 272.277C118.83 293.596 97.8344 314.726 76.2606 335.771C74.7143 334.551 73.818 333.344 72.767 332.291C51.2869 310.782 29.7937 289.286 8.28101 267.81C7.28414 266.815 6.08234 266.025 4.6629 264.889C3.33622 267.968 2.25155 270.485 1.16687 273.003C1.11138 244.763 1.04331 216.523 1.00538 188.283C0.98463 172.833 1.0148 157.382 1.09403 141.467C5.63149 139.495 8.40936 141.774 11.4376 144.816C52.2002 185.76 93.0804 226.587 133.948 267.425C135.59 269.065 137.399 270.537 139.478 272.277Z" fill="#00D4FF"/>
<path d="M206.791 206.446C230.184 182.484 253.762 158.813 277.629 134.967C301.568 148.515 325.361 161.999 348.79 176.09C357.345 181.235 362.155 189.595 364.04 199.583C366.239 211.237 362.909 221.477 355.765 230.354C352.814 234.021 348.425 236.743 344.276 239.196C325.202 250.476 305.986 261.518 286.807 272.621C283.877 274.317 280.872 275.884 277.638 277.689C275.965 276.248 274.647 274.539 273.136 273.023C251.098 250.913 229.034 228.828 206.791 206.446Z" fill="#FFCE00"/>
<path d="M1.09454 273.466C2.25159 270.485 3.33626 267.968 4.66293 264.889C6.08238 266.025 7.28418 266.815 8.28104 267.81C29.7937 289.286 51.287 310.782 72.767 332.291C73.818 333.344 74.7143 334.551 75.9558 335.896C63.7834 348.764 51.3475 361.432 38.8888 374.077C30.266 382.829 21.6117 391.55 12.8394 400.604C6.73438 395.339 2.25755 388.685 2.09762 380.405C1.50851 349.904 1.32393 319.396 1.00884 288.891C0.95733 283.904 1.01496 278.917 1.09454 273.466Z" fill="#00DDFF"/>
</svg>
