<svg width="25" height="25" viewBox="0 0 25 25" fill="none" xmlns="http://www.w3.org/2000/svg">
<g clip-path="url(#clip0_629_577)">
<path d="M12.7126 2.86523C15.4214 2.86523 15.7594 2.8752 16.8222 2.92505C17.8841 2.9749 18.6069 3.14141 19.243 3.38866C19.901 3.6419 20.4553 3.98487 21.0097 4.53821C21.5166 5.03661 21.9089 5.63949 22.1592 6.30491C22.4055 6.94 22.573 7.66382 22.6228 8.72564C22.6697 9.78844 22.6826 10.1264 22.6826 12.8353C22.6826 15.5442 22.6727 15.8821 22.6228 16.945C22.573 18.0068 22.4055 18.7296 22.1592 19.3657C21.9096 20.0315 21.5173 20.6345 21.0097 21.1324C20.5111 21.6392 19.9083 22.0314 19.243 22.2819C18.6079 22.5282 17.8841 22.6957 16.8222 22.7455C15.7594 22.7924 15.4214 22.8054 12.7126 22.8054C10.0037 22.8054 9.66573 22.7954 8.60292 22.7455C7.54111 22.6957 6.81828 22.5282 6.18219 22.2819C5.51652 22.0322 4.91353 21.6398 4.4155 21.1324C3.90843 20.6341 3.51613 20.0312 3.26595 19.3657C3.01869 18.7306 2.85219 18.0068 2.80234 16.945C2.75548 15.8821 2.74252 15.5442 2.74252 12.8353C2.74252 10.1264 2.75249 9.78844 2.80234 8.72564C2.85219 7.66283 3.01869 6.94099 3.26595 6.30491C3.51544 5.63908 3.90783 5.03604 4.4155 4.53821C4.91367 4.03096 5.51662 3.63864 6.18219 3.38866C6.81828 3.14141 7.54012 2.9749 8.60292 2.92505C9.66573 2.8782 10.0037 2.86523 12.7126 2.86523ZM12.7126 7.85026C11.3905 7.85026 10.1225 8.37547 9.18764 9.31035C8.25276 10.2452 7.72755 11.5132 7.72755 12.8353C7.72755 14.1574 8.25276 15.4254 9.18764 16.3602C10.1225 17.2951 11.3905 17.8203 12.7126 17.8203C14.0347 17.8203 15.3027 17.2951 16.2375 16.3602C17.1724 15.4254 17.6976 14.1574 17.6976 12.8353C17.6976 11.5132 17.1724 10.2452 16.2375 9.31035C15.3027 8.37547 14.0347 7.85026 12.7126 7.85026V7.85026ZM19.1931 7.60101C19.1931 7.27049 19.0618 6.95349 18.8281 6.71978C18.5944 6.48606 18.2774 6.35476 17.9469 6.35476C17.6163 6.35476 17.2993 6.48606 17.0656 6.71978C16.8319 6.95349 16.7006 7.27049 16.7006 7.60101C16.7006 7.93154 16.8319 8.24853 17.0656 8.48225C17.2993 8.71597 17.6163 8.84727 17.9469 8.84727C18.2774 8.84727 18.5944 8.71597 18.8281 8.48225C19.0618 8.24853 19.1931 7.93154 19.1931 7.60101ZM12.7126 9.84428C13.5059 9.84428 14.2666 10.1594 14.8276 10.7203C15.3885 11.2813 15.7036 12.042 15.7036 12.8353C15.7036 13.6286 15.3885 14.3893 14.8276 14.9503C14.2666 15.5112 13.5059 15.8263 12.7126 15.8263C11.9193 15.8263 11.1585 15.5112 10.5976 14.9503C10.0367 14.3893 9.72157 13.6286 9.72157 12.8353C9.72157 12.042 10.0367 11.2813 10.5976 10.7203C11.1585 10.1594 11.9193 9.84428 12.7126 9.84428V9.84428Z" fill="white"/>
</g>
<defs>
<clipPath id="clip0_629_577">
<rect width="23.9281" height="23.9281" fill="white" transform="translate(0.748505 0.871094)"/>
</clipPath>
</defs>
</svg>
