<svg width="99" height="98" viewBox="0 0 99 98" fill="none" xmlns="http://www.w3.org/2000/svg">
<path d="M0 97.2768C0.0817697 97.1694 0.16354 97.1582 0.31056 97.1733C0.406363 97.3442 0.436915 97.4887 0.425998 97.6953C0.256352 97.6293 0.128176 97.5011 0 97.2768Z" fill="black"/>
<path d="M98.1507 97.7576C98.1421 97.5217 98.2297 97.2859 98.3782 97.1154C98.375 97.373 98.3109 97.5653 98.1507 97.7576Z" fill="black"/>
<path d="M2.3072 97.7576C1.72452 97.7576 1.14185 97.7576 0.513337 97.6954C0.436945 97.4888 0.406393 97.3443 0.378446 97.1086C0.383227 95.031 0.408261 93.0444 0.37536 91.0587C0.363616 90.3499 0.600632 89.9705 1.27964 89.6949C6.9452 87.3951 12.5962 85.0594 18.2506 82.7322C23.8755 80.4172 29.496 78.0914 35.1247 75.7858C39.1823 74.1237 43.2503 72.4869 47.3098 70.9228C47.3031 71.1981 47.2925 71.3895 47.2987 71.5804C47.3341 72.6666 47.9372 73.3961 48.8964 73.5187C49.8945 73.6463 50.7461 73.1687 51.0464 72.3129C51.4029 71.2969 51.0238 70.4132 50.036 69.813C50.2673 69.651 50.4494 69.5181 50.6519 69.4342C55.7384 67.3289 60.8257 65.2252 65.9159 63.1287C70.3552 61.3002 74.7993 59.4834 79.2394 57.6568C85.0705 55.2579 90.8978 52.8496 96.732 50.4584C97.5819 50.11 97.9804 50.4069 98.051 51.3407C98.0916 51.8773 98.1551 52.4121 98.2019 53.0141C97.728 53.482 97.3161 53.9901 96.7839 54.2682C92.6283 56.4401 88.4489 58.5665 84.2781 60.7095C79.8811 62.9687 75.4816 65.2231 71.0908 67.4943C68.4802 68.8447 65.8844 70.2236 63.2077 71.5939C61.7009 72.3159 60.2682 73.0337 58.768 73.7637C57.0553 74.6028 55.4016 75.4135 53.7674 76.2616C52.247 77.0506 50.7474 77.8795 49.1751 78.7196C48.1393 79.2762 47.1758 79.8209 46.1933 80.3288C41.9758 82.5092 37.7555 84.6845 33.5308 86.851C27.8683 89.7549 22.2066 92.6605 16.5247 95.526C16.0547 95.763 15.402 95.8517 14.8885 95.7459C13.6598 95.4926 12.4758 95.0263 11.2494 94.7569C10.5678 94.6072 9.7636 94.471 9.14245 94.6904C7.00287 95.4462 4.91619 96.3533 2.82004 97.2283C2.61174 97.3153 2.4764 97.577 2.3072 97.7576Z" fill="#935B44"/>
<path d="M98.2087 86.6176C98.249 86.6535 98.2892 86.6893 98.3843 86.6657C98.439 90.071 98.439 93.5358 98.3782 97.0253C98.2297 97.2859 98.1421 97.5217 98.0545 97.7575C97.4718 97.7575 96.8892 97.7575 96.2192 97.7575C95.9926 97.591 95.8868 97.3441 95.7091 97.2703C93.5767 96.3836 91.4566 95.4573 89.2793 94.6954C88.6395 94.4716 87.8115 94.6453 87.1025 94.7935C86.1299 94.9968 85.1906 95.3569 84.2331 95.6362C83.2604 95.9199 82.3839 95.8323 81.4337 95.3277C78.1116 93.5634 74.7265 91.918 71.377 90.2048C67.2736 88.1061 63.1765 85.9948 59.0866 83.8699C55.8359 82.1809 52.6002 80.4632 49.2981 78.7245C50.7472 77.8794 52.2468 77.0505 53.7672 76.2616C55.4014 75.4135 57.0551 74.6028 58.8074 73.8144C59.1601 73.9969 59.3929 74.1714 59.6531 74.28C61.7787 75.167 63.9078 76.0457 66.039 76.9194C76.1619 81.0694 86.2858 85.2171 96.4095 89.3653C96.8969 89.565 97.3856 89.7613 97.951 89.9905C98.0451 88.7587 98.1269 87.6882 98.2087 86.6176Z" fill="#C68D7A"/>
<path d="M98.4392 52.8699C98.402 52.9344 98.3648 52.9087 98.2679 52.9153C98.1551 52.4121 98.0916 51.8773 98.051 51.3407C97.9804 50.4069 97.5819 50.11 96.732 50.4584C90.8978 52.8496 85.0705 55.2579 79.2394 57.6568C74.7993 59.4834 70.3552 61.3002 65.9159 63.1286C60.8257 65.2252 55.7384 67.3289 50.6518 69.4342C50.4494 69.518 50.2673 69.651 49.9647 69.7876C48.7106 69.4209 47.9339 69.9358 47.3137 70.8388C43.2503 72.4869 39.1823 74.1237 35.1247 75.7858C29.4959 78.0914 23.8755 80.4172 18.2506 82.7322C12.5962 85.0594 6.94517 87.3951 1.27961 89.6949C0.600602 89.9705 0.363587 90.3499 0.375331 91.0587C0.408232 93.0444 0.383198 95.031 0.313166 97.0822C0.16354 97.1583 0.0817699 97.1695 0 97.1808C1.92264e-07 93.652 1.94817e-07 90.1231 1.94817e-07 86.5041C2.44778 84.5028 5.48398 83.8526 8.24529 82.6236C12.4821 80.7379 16.8111 79.0588 21.1068 77.3063C25.4889 75.5185 29.8784 73.7486 34.2637 71.9685C34.5268 71.8617 34.7817 71.7347 35.177 71.5885C38.1722 70.3758 41.031 69.1918 43.9571 67.9923C45.7001 67.271 47.3758 66.5653 49.1222 65.8516C49.4911 65.7313 49.7924 65.6266 50.087 65.5055C58.7759 61.9359 67.4666 58.3703 76.1515 54.791C79.7523 53.307 83.3407 51.793 87.0045 50.2857C88.3738 49.6964 89.6733 49.1142 90.9727 48.5319C92.8099 47.8028 94.6761 47.1372 96.4717 46.3171C97.3438 45.9189 97.8645 46.0368 98.3671 46.8224C98.4392 48.7983 98.4392 50.7891 98.4392 52.8699Z" fill="#87523E"/>
<path d="M43.8898 68.0077C41.031 69.1917 38.1722 70.3757 35.2486 71.584C32.7856 70.3407 30.3975 69.0541 27.9874 67.8099C23.5366 65.512 19.0708 63.243 14.6152 60.9544C10.4377 58.8087 6.25629 56.6701 2.09883 54.486C1.374 54.1053 0.759203 53.515 0.0467917 53.0869C-1.77627e-07 51.2256 -1.91487e-07 49.299 7.76914e-10 47.2822C0.0628598 47.1746 0.125719 47.157 0.243582 47.1451C0.298584 48.2281 0.298584 49.3056 0.298584 50.277C0.928538 50.3662 1.3874 50.3426 1.77296 50.4993C5.88932 52.1726 9.99134 53.8812 14.1026 55.5672C23.1533 59.2789 32.2095 62.9774 41.256 66.6994C42.1603 67.0715 43.0131 67.5686 43.8898 68.0077Z" fill="#C68D7A"/>
<path d="M86.9349 50.2927C83.3409 51.793 79.7525 53.3071 76.1517 54.791C67.4667 58.3704 58.7761 61.936 50.0871 65.5056C49.7926 65.6266 49.4913 65.7313 49.0687 65.8058C48.799 65.7017 48.6557 65.6305 48.5082 65.5699C35.3032 60.1412 22.0974 54.7147 8.89518 49.2794C8.40023 49.0757 7.94063 48.7861 7.46455 48.5364C7.47588 47.0346 7.48857 45.5327 7.49809 44.0309C7.5056 42.8462 8.10722 42.4253 9.22205 42.8567C10.2621 43.2593 11.2906 43.6915 12.4304 44.1706C12.8504 44.3839 13.1555 44.5594 13.4794 44.6873C20.0584 47.2845 26.6376 49.8814 33.221 52.4674C38.0457 54.3625 42.8766 56.2418 47.7624 58.1644C48.8061 58.8122 49.7777 58.7978 50.8055 58.1258C57.7787 55.4031 64.6833 52.6945 71.5819 49.971C75.029 48.6101 78.4654 47.2221 81.9777 45.8393C83.3563 45.2576 84.6637 44.6828 85.9711 44.1081C86.1707 44.0502 86.3703 43.9923 86.6541 44.0224C86.7957 44.5489 86.8954 44.9867 86.9028 45.426C86.93 47.0479 86.9267 48.6704 86.9349 50.2927Z" fill="#1C1724"/>
<path d="M47.7046 58.1281C42.8765 56.2418 38.0456 54.3624 33.2209 52.4673C26.6375 49.8814 20.0583 47.2844 13.4793 44.6872C13.1554 44.5594 12.8503 44.3838 12.5024 44.1708C12.4778 42.2891 12.484 40.467 12.4986 38.645C12.5055 37.7797 12.7869 37.5556 13.6207 37.8517C15.993 38.6943 18.4018 38.5422 20.8664 38.4031C23.1233 38.2758 25.4144 38.5163 27.6741 38.7516C29.5514 38.9472 31.4308 39.2653 33.2637 39.7146C37.6594 40.7921 41.8256 42.4493 45.5052 45.1451C46.4169 45.8131 47.1893 46.671 47.9686 47.5447C47.7982 48.7297 47.685 49.8118 47.5611 50.9964C47.2502 50.8516 47.0264 50.7545 46.8089 50.6449C43.8668 49.1629 41.015 47.4505 37.9608 46.2551C34.3361 44.8363 30.5478 43.827 26.8079 42.7159C25.6341 42.3672 24.7434 43.3186 25.0261 44.4558C25.2587 45.3917 26.0732 45.4694 26.8178 45.6542C33.1924 47.236 39.3097 49.4713 44.9514 52.8841C47.7117 54.5539 47.6961 54.5797 47.7018 57.8398C47.702 57.9359 47.7036 58.032 47.7046 58.1281Z" fill="#C8C4C9"/>
<path d="M81.9063 45.8463C78.465 47.222 75.0287 48.6101 71.5816 49.9709C64.683 52.6944 57.7784 55.403 50.8067 58.0368C50.7373 57.1869 50.7714 56.4161 50.7278 55.6496C50.6885 54.9579 50.9412 54.4874 51.5448 54.1609C54.4417 52.5941 57.225 50.7532 60.2544 49.5116C64.0917 47.939 68.1249 46.843 72.0794 45.5593C73.1757 45.2035 73.6289 44.6241 73.4269 43.7039C73.2481 42.8899 72.5063 42.4971 71.4502 42.7398C64.5033 44.3361 57.9085 46.8252 51.7972 50.5326C51.5197 50.701 51.2166 50.8271 50.737 51.0672C50.737 50.0854 50.7751 49.3208 50.7197 48.5631C50.6949 48.2234 50.4827 47.8975 50.3556 47.5653C51.8378 45.7819 53.7273 44.5069 55.703 43.3592C58.7878 41.5671 62.1443 40.4234 65.5895 39.6125C67.8534 39.0796 70.19 38.8214 72.5077 38.5622C74.1107 38.3829 75.737 38.3641 77.353 38.3621C78.8085 38.3602 80.2642 38.4788 81.8098 38.6471C81.9019 41.1154 81.9041 43.4809 81.9063 45.8463Z" fill="#C8C4C9"/>
<path d="M7.39333 48.5328C7.94048 48.786 8.40008 49.0757 8.89503 49.2794C22.0972 54.7147 35.3031 60.1411 48.508 65.5698C48.6556 65.6305 48.7989 65.7017 48.9978 65.8138C47.3758 66.5653 45.7002 67.2711 43.9572 67.9923C43.0131 67.5687 42.1603 67.0715 41.2561 66.6995C32.2096 62.9774 23.1534 59.279 14.1026 55.5673C9.99139 53.8813 5.88936 52.1727 1.773 50.4994C1.38743 50.3426 0.928578 50.3662 0.298623 50.277C0.298623 49.3057 0.298623 48.2282 0.264534 47.0803C0.59202 45.9728 0.903037 45.8643 1.8654 46.2771C3.67371 47.0526 5.50217 47.7812 7.39333 48.5328Z" fill="#BC7D64"/>
<path d="M50.2932 47.5911C50.4827 47.8975 50.6948 48.2234 50.7196 48.5631C50.7751 49.3208 50.737 50.0854 50.737 51.0672C51.2165 50.8271 51.5197 50.701 51.7972 50.5326C57.9084 46.8252 64.5032 44.3361 71.4501 42.7398C72.5062 42.4971 73.2481 42.8899 73.4268 43.7039C73.6288 44.6241 73.1756 45.2035 72.0794 45.5593C68.1248 46.843 64.0916 47.939 60.2544 49.5116C57.225 50.7532 54.4417 52.5941 51.5448 54.161C50.9411 54.4875 50.6885 54.9579 50.7278 55.6496C50.7714 56.4161 50.7373 57.1869 50.7355 58.0448C49.7773 58.7977 48.8057 58.8121 47.7621 58.1643C47.7034 58.032 47.7017 57.9359 47.7015 57.8398C47.6958 54.5797 47.7115 54.5539 44.9511 52.8841C39.3094 49.4714 33.1922 47.236 26.8176 45.6542C26.073 45.4694 25.2585 45.3917 25.0258 44.4558C24.7431 43.3187 25.6338 42.3672 26.8077 42.7159C30.5475 43.827 34.3358 44.8363 37.9605 46.2551C41.0147 47.4505 43.8665 49.1629 46.8087 50.6449C47.0262 50.7545 47.25 50.8516 47.5608 50.9964C47.6848 49.8118 47.798 48.7298 47.9726 47.6087C48.4056 48.0169 48.777 48.4641 49.2387 49.02C49.5848 48.5307 49.9079 48.0738 50.2932 47.5911Z" fill="#D9D9D9"/>
<path d="M81.9774 45.8392C81.9041 43.4808 81.9019 41.1154 81.8983 38.662C82.8527 38.342 83.8151 38.1336 84.7625 37.8713C85.7166 37.607 85.9413 37.7547 85.9433 38.7644C85.9468 40.486 85.9456 42.2076 85.9586 44.0186C84.6634 44.6827 83.356 45.2575 81.9774 45.8392Z" fill="#D9D9D9"/>
<path d="M87.0043 50.2857C86.9264 48.6704 86.9297 47.0479 86.9024 45.4259C86.8951 44.9866 86.7954 44.5488 86.7181 44.0343C87.734 43.5616 88.7483 43.0863 89.8129 42.7946C90.575 42.5858 90.9708 43.0254 90.9519 43.862C90.9181 45.3585 90.9451 46.8563 90.9596 48.4428C89.6731 49.1142 88.3736 49.6964 87.0043 50.2857Z" fill="#19171C"/>
<path d="M98.2005 86.5477C98.127 87.6882 98.0452 88.7588 97.9511 89.9906C97.3857 89.7614 96.897 89.565 96.4096 89.3653C86.2859 85.2172 76.162 81.0695 66.0391 76.9194C63.9079 76.0457 61.7788 75.167 59.6532 74.28C59.393 74.1714 59.1602 73.997 58.875 73.8023C60.2681 73.0337 61.7008 72.3159 63.2076 71.5939C67.6776 73.3862 72.0724 75.1854 76.4695 76.9787C81.3895 78.9851 86.3156 80.9765 91.2308 82.9943C93.3127 83.849 95.3819 84.736 97.4354 85.6563C97.7477 85.7963 97.9429 86.1974 98.2005 86.5477Z" fill="#BC7C63"/>
<path d="M47.3096 70.9228C47.9337 69.9358 48.7104 69.4209 49.9248 69.8395C51.0236 70.4132 51.4027 71.2968 51.0461 72.3129C50.7459 73.1686 49.8942 73.6462 48.8961 73.5186C47.937 73.396 47.3338 72.6665 47.2985 71.5803C47.2923 71.3894 47.3029 71.198 47.3096 70.9228Z" fill="#763F2E"/>
<path d="M49.8472 6.25817C49.7566 9.33853 49.6086 12.3071 49.5655 15.2773C49.5496 16.3695 49.2266 17.1613 48.0993 17.1959C46.9618 17.2309 46.3832 16.5737 46.4138 15.3507C46.5201 11.1052 46.5639 6.8581 46.6582 2.61219C46.6869 1.32117 47.5574 0.286474 48.4903 0.462097C49.8216 0.712708 50.0284 1.62847 49.8632 2.86162C49.7188 3.93883 49.8319 5.05055 49.8472 6.25817Z" fill="#FFBE40"/>
<path d="M34.7012 14.9912C33.7361 12.4733 32.8551 10.0263 31.8888 7.61343C31.5334 6.72612 31.5275 5.97791 32.426 5.57001C33.3328 5.15839 34.0215 5.49398 34.409 6.49186C35.7541 9.9559 37.1502 13.4001 38.5051 16.8604C38.917 17.9126 38.5628 19.0415 37.7503 19.2141C36.5908 19.4604 36.1152 18.7907 35.833 17.7392C35.5865 16.8207 35.1205 15.9612 34.7012 14.9912Z" fill="#FFBE40"/>
<path d="M11.6892 26.6417C15.3841 28.0936 18.9935 29.501 22.6169 30.8715C23.5937 31.241 23.7091 32.0179 23.4154 32.7529C23.1379 33.4471 22.4885 33.7478 21.6334 33.4117C18.0275 31.994 14.3865 30.6631 10.8068 29.1833C10.2996 28.9736 9.71061 28.0751 9.77339 27.572C9.87874 26.7279 10.6343 26.2515 11.6892 26.6417Z" fill="#FFBE40"/>
<path d="M27.6443 20.8387C28.2861 21.4831 28.8969 22.0386 29.4373 22.6556C29.998 23.2958 30.2433 23.9951 29.4126 24.6421C28.6991 25.1979 28.0263 25.1783 27.3689 24.5182C24.758 21.8967 22.1438 19.2784 19.5171 16.6726C18.795 15.9562 18.4916 15.1967 19.2024 14.3362C19.6493 13.7952 20.8386 14.0357 21.5637 14.7598C23.571 16.7644 25.5763 18.7709 27.6443 20.8387Z" fill="#FFBE40"/>
<path d="M73.705 20.5465C72.3672 21.8838 71.0998 23.1629 69.8185 24.4278C68.8579 25.3761 67.9003 25.5387 67.2965 24.7936C66.5734 23.9014 66.937 23.1573 67.6901 22.4187C70.353 19.8074 72.9717 17.1509 75.6145 14.519C76.6587 13.4791 77.3243 13.3887 78.0684 14.2437C78.8451 15.1361 78.3189 15.899 77.6721 16.5644C76.3874 17.8861 75.072 19.178 73.705 20.5465Z" fill="#FFBE40"/>
<path d="M87.3236 27.0896C88.2408 28.2105 88.0923 29.1363 86.9211 29.5985C83.2097 31.0629 79.4941 32.5194 75.7479 33.8911C75.0136 34.16 74.0407 34.3527 73.6168 33.2065C73.2296 32.1593 73.7466 31.5823 74.6372 31.2357C78.3967 29.7723 82.1577 28.3122 85.9371 26.9016C86.3071 26.7635 86.8067 26.9727 87.3236 27.0896Z" fill="#FFBE40"/>
<path d="M57.9492 18.5549C58.1634 17.288 58.3459 16.0522 58.7662 14.9034C59.849 11.9432 61.0445 9.0244 62.1789 6.08286C62.5693 5.07048 63.4332 4.55583 64.3124 4.95186C65.2118 5.35705 65.1828 6.18135 64.9073 6.92245C63.9534 9.4883 62.9358 12.0304 61.9432 14.5819C61.5068 15.7035 61.0562 16.82 60.6411 17.9494C60.1019 19.4166 59.3126 19.6293 57.9492 18.5549Z" fill="#FFBE40"/>
<path d="M42.3351 35.5921L41.6487 33.8694C42.4204 33.6002 43.044 33.3041 43.5195 32.9811C44.004 32.6581 44.3585 32.3126 44.5828 31.9447C44.8161 31.5769 44.9327 31.1955 44.9327 30.8007C44.9327 30.5495 44.8968 30.2893 44.825 30.0201C44.7532 29.742 44.6501 29.4504 44.5155 29.1453C44.3899 28.8402 44.2373 28.5217 44.0579 28.1897L45.821 27.3418C46.135 27.943 46.3773 28.5172 46.5478 29.0645C46.7272 29.6119 46.8169 30.1233 46.8169 30.5988C46.8169 31.0385 46.7586 31.4602 46.642 31.864C46.5343 32.2678 46.3638 32.6446 46.1305 32.9945C45.9062 33.3534 45.6146 33.6899 45.2557 34.0039C44.8968 34.318 44.4751 34.6051 43.9906 34.8653C43.5061 35.1345 42.9542 35.3768 42.3351 35.5921ZM47.5192 35.5921L47.1289 33.7079C47.766 33.6271 48.3223 33.5284 48.7978 33.4118C49.2734 33.3041 49.6727 33.1516 49.9957 32.9542C50.3187 32.7568 50.5609 32.4876 50.7224 32.1466C50.884 31.7967 50.9647 31.3481 50.9647 30.8007C50.9647 30.2713 50.884 29.8496 50.7224 29.5356C50.5609 29.2216 50.3456 29.0645 50.0764 29.0645C49.888 29.0645 49.731 29.1318 49.6054 29.2664C49.4797 29.392 49.3855 29.5446 49.3227 29.724C49.2689 29.8945 49.242 30.047 49.242 30.1816C49.242 30.2624 49.2644 30.3476 49.3093 30.4373C49.3541 30.5271 49.4528 30.6033 49.6054 30.6661C49.7579 30.7289 49.9957 30.7648 50.3187 30.7738C50.6507 30.7828 51.0993 30.7514 51.6646 30.6796H53.9257C54.2666 30.6796 54.5089 30.7693 54.6524 30.9488C54.805 31.1193 54.8812 31.3346 54.8812 31.5948C54.8812 31.873 54.787 32.1062 54.5986 32.2947C54.4102 32.4741 54.141 32.5638 53.7911 32.5638H50.0899C49.5246 32.5638 49.0401 32.4966 48.6363 32.362C48.2325 32.2274 47.923 32.012 47.7077 31.7159C47.4923 31.4109 47.3846 31.0071 47.3846 30.5046C47.3846 30.1009 47.4519 29.6971 47.5865 29.2933C47.7301 28.8896 47.9275 28.5217 48.1787 28.1897C48.4299 27.8487 48.7216 27.5796 49.0535 27.3822C49.3945 27.1758 49.7624 27.0726 50.1572 27.0726C50.6955 27.0726 51.1666 27.2386 51.5704 27.5706C51.9741 27.9026 52.2882 28.3422 52.5125 28.8896C52.7458 29.4369 52.8624 30.0336 52.8624 30.6796C52.8624 31.6935 52.6471 32.5549 52.2164 33.2637C51.7857 33.9725 51.1711 34.5199 50.3725 34.9057C49.574 35.3005 48.6229 35.5293 47.5192 35.5921ZM52.9353 32.5638L53.0699 30.6796C53.4647 30.6796 53.7742 30.6527 53.9985 30.5988C54.2318 30.545 54.3978 30.4463 54.4965 30.3028C54.5952 30.1502 54.6446 29.9349 54.6446 29.6567C54.6446 29.4055 54.6087 29.1049 54.5369 28.755C54.4741 28.405 54.3888 28.0417 54.2812 27.6648C54.1735 27.288 54.0658 26.9425 53.9582 26.6285L55.8155 26.117C55.9232 26.4221 56.0308 26.7765 56.1385 27.1803C56.2462 27.5841 56.3359 28.0013 56.4077 28.432C56.4884 28.8537 56.5288 29.2619 56.5288 29.6567C56.5288 30.1502 56.466 30.5674 56.3404 30.9084C56.2148 31.2404 56.0398 31.5185 55.8155 31.7429C55.6001 31.9582 55.3399 32.1287 55.0349 32.2543C54.7388 32.3709 54.4113 32.4517 54.0524 32.4966C53.6935 32.5414 53.3211 32.5638 52.9353 32.5638ZM54.8734 24.9999C54.5952 24.9999 54.3574 24.9057 54.16 24.7173C53.9716 24.5289 53.8774 24.2956 53.8774 24.0174C53.8774 23.7393 53.9716 23.5015 54.16 23.3041C54.3574 23.1067 54.5952 23.008 54.8734 23.008C55.1425 23.008 55.3713 23.1067 55.5598 23.3041C55.7572 23.5015 55.8559 23.7393 55.8559 24.0174C55.8559 24.2956 55.7572 24.5289 55.5598 24.7173C55.3713 24.9057 55.1425 24.9999 54.8734 24.9999Z" fill="#1B0B3B"/>
</svg>
