<svg width="154" height="153" viewBox="0 0 154 153" fill="none" xmlns="http://www.w3.org/2000/svg">
<path d="M0 152.006C0.127775 151.838 0.25555 151.821 0.485287 151.844C0.63499 152.111 0.682731 152.337 0.665672 152.66C0.40058 152.557 0.20029 152.357 0 152.006Z" fill="black"/>
<path d="M153.372 152.757C153.359 152.389 153.495 152.02 153.727 151.754C153.722 152.156 153.622 152.457 153.372 152.757Z" fill="black"/>
<path d="M3.60525 152.758C2.69475 152.758 1.78425 152.758 0.802127 152.661C0.682756 152.338 0.635015 152.112 0.591344 151.744C0.598816 148.497 0.637935 145.393 0.586522 142.29C0.568171 141.182 0.938535 140.589 1.99957 140.159C10.8527 136.565 19.683 132.915 28.5187 129.279C37.3083 125.661 46.0909 122.027 54.8864 118.424C61.2269 115.827 67.5837 113.269 73.9271 110.825C73.9166 111.255 73.9 111.554 73.9097 111.853C73.965 113.55 74.9075 114.69 76.4062 114.882C77.9659 115.081 79.2967 114.335 79.7659 112.997C80.323 111.41 79.7307 110.029 78.187 109.091C78.5485 108.838 78.833 108.63 79.1494 108.499C87.0978 105.209 95.0472 101.922 103.001 98.6459C109.938 95.7887 116.883 92.9498 123.821 90.0955C132.933 86.347 142.038 82.5837 151.155 78.8471C152.483 78.3028 153.106 78.7667 153.216 80.2259C153.28 81.0643 153.379 81.9 153.452 82.8407C152.711 83.5719 152.068 84.3658 151.236 84.8004C144.742 88.1942 138.212 91.517 131.694 94.8657C124.823 98.3959 117.949 101.919 111.088 105.468C107.008 107.578 102.952 109.733 98.7694 111.874C96.4148 113.002 94.176 114.124 91.8318 115.264C89.1555 116.576 86.5714 117.842 84.0177 119.168C81.6421 120.401 79.2987 121.696 76.8418 123.009C75.2232 123.878 73.7176 124.729 72.1824 125.523C65.592 128.93 58.9974 132.329 52.3958 135.715C43.5475 140.252 34.7004 144.793 25.8217 149.27C25.0873 149.641 24.0674 149.779 23.265 149.614C21.3451 149.218 19.4949 148.49 17.5784 148.069C16.5134 147.835 15.2567 147.622 14.2861 147.965C10.9428 149.146 7.6821 150.563 4.40662 151.931C4.08113 152.066 3.86965 152.475 3.60525 152.758Z" fill="#935B44"/>
<path d="M153.463 135.35C153.525 135.406 153.588 135.462 153.737 135.425C153.822 140.747 153.822 146.161 153.727 151.613C153.495 152.021 153.358 152.389 153.222 152.758C152.311 152.758 151.401 152.758 150.354 152.758C150 152.498 149.834 152.112 149.557 151.996C146.225 150.611 142.912 149.163 139.509 147.973C138.509 147.623 137.216 147.894 136.108 148.126C134.588 148.444 133.12 149.006 131.624 149.443C130.104 149.886 128.734 149.749 127.25 148.961C122.058 146.204 116.769 143.633 111.535 140.956C105.123 137.676 98.7206 134.377 92.3297 131.057C87.2501 128.417 82.1939 125.733 77.0341 123.016C79.2984 121.696 81.6418 120.401 84.0174 119.168C86.5711 117.842 89.1552 116.576 91.8934 115.344C92.4445 115.629 92.8083 115.902 93.215 116.071C96.5365 117.457 99.8634 118.83 103.194 120.196C119.012 126.681 134.832 133.162 150.651 139.644C151.413 139.956 152.176 140.263 153.06 140.621C153.207 138.696 153.335 137.023 153.463 135.35Z" fill="#C68D7A"/>
<path d="M153.823 82.6154C153.765 82.7161 153.706 82.6759 153.555 82.6864C153.379 81.9 153.279 81.0643 153.216 80.2258C153.106 78.7666 152.483 78.3027 151.155 78.8471C142.038 82.5837 132.933 86.3469 123.821 90.0955C116.883 92.9498 109.938 95.7887 103.001 98.6459C95.0472 101.922 87.0977 105.209 79.1494 108.499C78.833 108.63 78.5484 108.838 78.0757 109.051C76.1161 108.478 74.9023 109.283 73.9332 110.694C67.5836 113.269 61.2269 115.827 54.8864 118.424C46.0908 122.027 37.3082 125.661 28.5187 129.279C19.683 132.915 10.8526 136.565 1.99955 140.159C0.938511 140.589 0.568146 141.182 0.586498 142.29C0.63791 145.393 0.598791 148.497 0.489358 151.702C0.25555 151.821 0.127775 151.839 0 151.856C3.00435e-07 146.342 3.04425e-07 140.828 3.04425e-07 135.173C3.82494 132.045 8.56936 131.029 12.8842 129.109C19.5047 126.162 26.2693 123.539 32.9818 120.8C39.8294 118.006 46.6884 115.241 53.541 112.459C53.9521 112.292 54.3505 112.094 54.9681 111.865C59.6486 109.97 64.1157 108.12 68.6881 106.246C71.4118 105.119 74.0301 104.016 76.7591 102.901C77.3356 102.713 77.8064 102.549 78.2667 102.36C91.8442 96.7821 105.424 91.2104 118.996 85.6173C124.622 83.2984 130.23 80.9326 135.955 78.5772C138.094 77.6564 140.125 76.7466 142.155 75.8367C145.026 74.6974 147.942 73.6573 150.748 72.3759C152.111 71.7536 152.925 71.9378 153.71 73.1655C153.823 76.2531 153.823 79.3639 153.823 82.6154Z" fill="#87523E"/>
<path d="M68.5829 106.27C64.1157 108.12 59.6486 109.97 55.08 111.858C51.2314 109.916 47.4996 107.905 43.7336 105.961C36.7786 102.37 29.8004 98.8248 22.8379 95.2486C16.3101 91.8956 9.77619 88.5538 3.27967 85.141C2.14703 84.546 1.18634 83.6236 0.0731175 82.9546C-2.77564e-07 80.0462 -2.99221e-07 77.0356 1.21402e-09 73.8841C0.0982257 73.716 0.196451 73.6886 0.380625 73.6699C0.466572 75.3623 0.466572 77.0459 0.466572 78.5638C1.45095 78.7032 2.16797 78.6664 2.77045 78.9113C9.20275 81.526 15.6126 84.1958 22.0369 86.8304C36.1798 92.6304 50.3312 98.4096 64.4673 104.226C65.8804 104.807 67.213 105.584 68.5829 106.27Z" fill="#C68D7A"/>
<path d="M135.846 78.5883C130.23 80.9327 124.623 83.2985 118.996 85.6175C105.425 91.2106 91.8445 96.7822 78.267 102.36C77.8067 102.549 77.3359 102.713 76.6756 102.829C76.2541 102.667 76.0303 102.555 75.7997 102.461C55.1654 93.9776 34.5297 85.4982 13.8998 77.0049C13.1263 76.6865 12.4082 76.234 11.6642 75.8439C11.6819 73.4971 11.7018 71.1503 11.7167 68.8034C11.7284 66.9522 12.6685 66.2945 14.4105 66.9687C16.0357 67.5977 17.6429 68.2731 19.424 69.0218C20.0803 69.355 20.557 69.6294 21.0631 69.8292C31.3436 73.8876 41.6243 77.9456 51.9117 81.9864C59.4508 84.9478 66.9997 87.8845 74.6344 90.8887C76.2652 91.901 77.7834 91.8784 79.3895 90.8285C90.286 86.5738 101.075 82.3413 111.855 78.0855C117.242 75.959 122.611 73.79 128.1 71.6293C130.254 70.7203 132.297 69.8222 134.34 68.924C134.652 68.8336 134.964 68.7432 135.407 68.7902C135.628 69.6129 135.784 70.297 135.796 70.9835C135.838 73.518 135.833 76.0533 135.846 78.5883Z" fill="#AB7AAE"/>
<path d="M74.5441 90.8317C66.9996 87.8841 59.4507 84.9474 51.9116 81.986C41.6242 77.9452 31.3435 73.8872 21.063 69.8288C20.5569 69.629 20.0802 69.3546 19.5364 69.0218C19.4981 66.0814 19.5078 63.2342 19.5305 60.3871C19.5414 59.0349 19.9811 58.6848 21.2839 59.1475C24.991 60.464 28.7551 60.2264 32.6063 60.0091C36.1329 59.8102 39.713 60.1859 43.244 60.5537C46.1775 60.8592 49.1143 61.3564 51.9785 62.0584C58.8472 63.7421 65.3574 66.3318 71.1072 70.5442C72.5318 71.588 73.7389 72.9287 74.9566 74.2939C74.6903 76.1457 74.5134 77.8364 74.3198 79.6876C73.834 79.4613 73.4844 79.3095 73.1444 79.1383C68.547 76.8225 64.0907 74.1467 59.3182 72.2787C53.6542 70.0617 47.7345 68.4846 41.8906 66.7483C40.0563 66.2034 38.6645 67.6902 39.1062 69.4671C39.4698 70.9296 40.7425 71.051 41.906 71.3397C51.8671 73.8114 61.426 77.3045 70.2418 82.6374C74.5552 85.2466 74.5307 85.2869 74.5396 90.3812C74.5399 90.5314 74.5425 90.6816 74.5441 90.8317Z" fill="#C8C4C9"/>
<path d="M127.988 71.6402C122.611 73.79 117.241 75.959 111.855 78.0855C101.075 82.3413 90.2855 86.5738 79.3914 90.6894C79.283 89.3614 79.3363 88.1568 79.2682 86.9592C79.2067 85.8782 79.6015 85.1431 80.5448 84.6329C85.0716 82.1846 89.4208 79.3078 94.1546 77.3678C100.151 74.9104 106.453 73.1977 112.632 71.1919C114.345 70.6358 115.054 69.7305 114.738 68.2926C114.459 67.0205 113.299 66.4067 111.649 66.786C100.794 69.2804 90.4888 73.17 80.9392 78.9632C80.5056 79.2263 80.0319 79.4234 79.2825 79.7986C79.2825 78.2644 79.342 77.0697 79.2555 75.8856C79.2167 75.3549 78.8852 74.8455 78.6865 74.3265C81.0026 71.5397 83.9551 69.5474 87.0424 67.7539C91.8629 64.9535 97.1076 63.1664 102.491 61.8993C106.029 61.0666 109.68 60.663 113.302 60.258C115.807 59.9779 118.348 59.9485 120.873 59.9453C123.148 59.9425 125.422 60.1277 127.837 60.3908C127.981 64.2478 127.985 67.944 127.988 71.6402Z" fill="#C8C4C9"/>
<path d="M11.5529 75.8383C12.4079 76.2339 13.1261 76.6865 13.8995 77.0049C34.5295 85.4982 55.1652 93.9776 75.7994 102.461C76.03 102.555 76.2538 102.667 76.5647 102.842C74.0302 104.016 71.4118 105.119 68.6882 106.246C67.213 105.584 65.8804 104.807 64.4674 104.226C50.3312 98.4096 36.1798 92.6303 22.037 86.8304C15.6127 84.1958 9.20278 81.526 2.77048 78.9112C2.16799 78.6663 1.45098 78.7031 0.466598 78.5638C0.466598 77.0459 0.466598 75.3622 0.41333 73.5685C0.925065 71.8379 1.41107 71.6684 2.91487 72.3134C5.74056 73.5252 8.59775 74.6637 11.5529 75.8383Z" fill="#BC7D64"/>
<path d="M78.589 74.3666C78.885 74.8453 79.2165 75.3547 79.2553 75.8854C79.3419 77.0695 79.2824 78.2642 79.2824 79.7984C80.0318 79.4232 80.5054 79.2261 80.9391 78.963C90.4887 73.1698 100.794 69.2802 111.649 66.7858C113.299 66.4065 114.459 67.0203 114.738 68.2924C115.054 69.7303 114.345 70.6356 112.632 71.1917C106.453 73.1975 100.151 74.9102 94.1545 77.3676C89.4207 79.3076 85.0714 82.1844 80.5447 84.6327C79.6014 85.1429 79.2066 85.878 79.2681 86.959C79.3361 88.1566 79.2829 89.3612 79.2802 90.7017C77.7828 91.8782 76.2646 91.9007 74.6338 90.8884C74.5421 90.6817 74.5394 90.5316 74.5392 90.3814C74.5303 85.2871 74.5547 85.2468 70.2413 82.6375C61.4255 77.3047 51.8666 73.8116 41.9056 71.3399C40.7421 71.0512 39.4693 70.9298 39.1057 69.4672C38.664 67.6904 40.0558 66.2036 41.8901 66.7485C47.7341 68.4847 53.6537 70.0619 59.3177 72.2789C64.0903 74.1469 68.5465 76.8227 73.144 79.1385C73.4839 79.3097 73.8336 79.4615 74.3193 79.6878C74.513 77.8366 74.6899 76.1458 74.9628 74.394C75.6393 75.0319 76.2198 75.7307 76.9413 76.5993C77.4819 75.8348 77.9868 75.1208 78.589 74.3666Z" fill="#D9D9D9"/>
<path d="M128.099 71.6294C127.985 67.9441 127.981 64.2479 127.976 60.4142C129.467 59.9141 130.971 59.5885 132.451 59.1785C133.942 58.7657 134.293 58.9964 134.296 60.5741C134.302 63.2643 134.3 65.9546 134.32 68.7845C132.296 69.8222 130.253 70.7204 128.099 71.6294Z" fill="#D9D9D9"/>
<path d="M135.954 78.5771C135.833 76.0531 135.838 73.5178 135.795 70.9833C135.784 70.2968 135.628 69.6127 135.507 68.8087C137.095 68.07 138.68 67.3273 140.343 66.8715C141.534 66.5453 142.152 67.2321 142.123 68.5394C142.07 70.8778 142.112 73.2184 142.135 75.6974C140.125 76.7465 138.094 77.6564 135.954 78.5771Z" fill="#AB7AAE"/>
<path d="M153.45 135.241C153.335 137.023 153.207 138.696 153.06 140.621C152.177 140.262 151.413 139.956 150.651 139.644C134.832 133.162 119.012 126.68 103.194 120.195C99.8636 118.83 96.5366 117.457 93.2151 116.071C92.8084 115.901 92.4447 115.629 91.9991 115.324C94.1759 114.123 96.4146 113.002 98.7693 111.874C105.754 114.674 112.621 117.486 119.493 120.288C127.181 123.423 134.878 126.535 142.559 129.688C145.812 131.024 149.045 132.41 152.254 133.848C152.742 134.066 153.047 134.693 153.45 135.241Z" fill="#BC7C63"/>
<path d="M73.9267 110.825C74.902 109.283 76.1157 108.478 78.0133 109.132C79.7303 110.029 80.3226 111.41 79.7655 112.997C79.2963 114.334 77.9655 115.081 76.4059 114.881C74.9071 114.69 73.9646 113.55 73.9094 111.852C73.8997 111.554 73.9162 111.255 73.9267 110.825Z" fill="#763F2E"/>
<path d="M77.892 9.77876C77.7505 14.5922 77.5192 19.231 77.4519 23.8722C77.4271 25.5789 76.9223 26.8161 75.1608 26.8703C73.3833 26.9249 72.4791 25.898 72.5269 23.9869C72.693 17.3528 72.7615 10.7162 72.9089 4.08149C72.9537 2.06412 74.314 0.44729 75.7718 0.72172C77.8521 1.11333 78.1753 2.54431 77.917 4.47126C77.6914 6.15452 77.8682 7.89172 77.892 9.77876Z" fill="#FFBE40"/>
<path d="M54.2246 23.4253C52.7166 19.4908 51.3398 15.6671 49.8299 11.8967C49.2747 10.5102 49.2653 9.34103 50.6694 8.70364C52.0863 8.06044 53.1625 8.58484 53.768 10.1441C55.8699 15.5571 58.0514 20.9391 60.1686 26.3462C60.8124 27.9903 60.2589 29.7543 58.9893 30.0241C57.1774 30.409 56.4342 29.3625 55.9933 27.7194C55.6081 26.2842 54.8798 24.941 54.2246 23.4253Z" fill="#FFBE40"/>
<path d="M18.2657 41.6304C24.0395 43.8991 29.6795 46.0984 35.3415 48.2399C36.8679 48.8172 37.0482 50.0313 36.5892 51.1798C36.1557 52.2646 35.1408 52.7345 33.8048 52.2092C28.17 49.9939 22.4806 47.9142 16.8869 45.6019C16.0943 45.2743 15.1739 43.8702 15.2721 43.0841C15.4367 41.7651 16.6173 41.0206 18.2657 41.6304Z" fill="#FFBE40"/>
<path d="M43.1974 32.5627C44.2003 33.5698 45.1547 34.4377 45.9993 35.4019C46.8754 36.4022 47.2587 37.495 45.9607 38.506C44.8457 39.3745 43.7944 39.3438 42.7672 38.3125C38.6873 34.216 34.6022 30.1246 30.4978 26.0528C29.3694 24.9333 28.8953 23.7465 30.006 22.4018C30.7043 21.5564 32.5627 21.9323 33.6958 23.0638C36.8325 26.1961 39.966 29.3317 43.1974 32.5627Z" fill="#FFBE40"/>
<path d="M115.173 32.1065C113.082 34.1963 111.102 36.1949 109.1 38.1715C107.599 39.6533 106.102 39.9074 105.159 38.7431C104.029 37.3489 104.597 36.1861 105.774 35.0321C109.935 30.9516 114.027 26.8005 118.157 22.6878C119.788 21.0629 120.828 20.9216 121.991 22.2577C123.205 23.6522 122.382 24.8443 121.372 25.8841C119.364 27.9494 117.309 29.968 115.173 32.1065Z" fill="#FFBE40"/>
<path d="M136.453 42.3308C137.886 44.0824 137.655 45.529 135.824 46.2511C130.025 48.5395 124.219 50.8154 118.365 52.9589C117.217 53.3791 115.697 53.6803 115.035 51.8891C114.43 50.2527 115.238 49.3512 116.629 48.8095C122.504 46.5228 128.381 44.2413 134.287 42.037C134.865 41.8212 135.646 42.1481 136.453 42.3308Z" fill="#FFBE40"/>
<path d="M90.5524 28.9944C90.8871 27.0149 91.1723 25.0838 91.829 23.2886C93.5211 18.663 95.3892 14.102 97.1618 9.50551C97.7719 7.92355 99.1219 7.11934 100.496 7.7382C101.901 8.37135 101.856 9.65941 101.425 10.8175C99.9347 14.8269 98.3445 18.7993 96.7934 22.7863C96.1116 24.5389 95.4074 26.2835 94.7588 28.0484C93.9163 30.3411 92.6829 30.6733 90.5524 28.9944Z" fill="#FFBE40"/>
<path d="M66.1536 55.1775L65.081 52.4855C66.2868 52.0649 67.2612 51.6022 68.0043 51.0975C68.7614 50.5927 69.3152 50.0529 69.6658 49.4781C70.0303 48.9032 70.2126 48.3073 70.2126 47.6904C70.2126 47.2978 70.1565 46.8912 70.0443 46.4706C69.9322 46.036 69.7709 45.5803 69.5606 45.1036C69.3643 44.6269 69.126 44.1291 68.8455 43.6104L71.6006 42.2854C72.0913 43.2248 72.4699 44.1221 72.7363 44.9774C73.0167 45.8327 73.1569 46.6318 73.1569 47.3749C73.1569 48.062 73.0658 48.7209 72.8835 49.3519C72.7153 49.9828 72.4489 50.5717 72.0843 51.1185C71.7338 51.6793 71.2781 52.2051 70.7173 52.6958C70.1565 53.1865 69.4975 53.6352 68.7404 54.0418C67.9833 54.4624 67.121 54.841 66.1536 55.1775ZM74.2543 55.1775L73.6444 52.2331C74.6399 52.1069 75.5092 51.9527 76.2523 51.7704C76.9954 51.6022 77.6193 51.3638 78.124 51.0554C78.6288 50.7469 79.0073 50.3263 79.2597 49.7935C79.5121 49.2467 79.6383 48.5457 79.6383 47.6904C79.6383 46.8632 79.5121 46.2042 79.2597 45.7135C79.0073 45.2228 78.6709 44.9774 78.2502 44.9774C77.9558 44.9774 77.7104 45.0826 77.5141 45.2929C77.3178 45.4892 77.1706 45.7275 77.0725 46.0079C76.9884 46.2743 76.9463 46.5127 76.9463 46.723C76.9463 46.8492 76.9814 46.9824 77.0515 47.1226C77.1216 47.2628 77.2758 47.382 77.5141 47.4801C77.7525 47.5782 78.124 47.6343 78.6288 47.6484C79.1476 47.6624 79.8486 47.6133 80.7319 47.5011H84.2651C84.7979 47.5011 85.1765 47.6413 85.4008 47.9218C85.6392 48.1881 85.7583 48.5246 85.7583 48.9312C85.7583 49.3659 85.6111 49.7304 85.3167 50.0249C85.0222 50.3053 84.6016 50.4455 84.0548 50.4455H78.2713C77.388 50.4455 76.6308 50.3403 75.9999 50.13C75.369 49.9197 74.8853 49.5832 74.5488 49.1205C74.2123 48.6438 74.044 48.0129 74.044 47.2277C74.044 46.5968 74.1492 45.9659 74.3595 45.3349C74.5838 44.704 74.8923 44.1291 75.2848 43.6104C75.6774 43.0776 76.1331 42.657 76.6519 42.3485C77.1847 42.026 77.7595 41.8648 78.3764 41.8648C79.2177 41.8648 79.9537 42.1242 80.5847 42.6429C81.2156 43.1617 81.7063 43.8487 82.0569 44.704C82.4214 45.5593 82.6037 46.4916 82.6037 47.5011C82.6037 49.0855 82.2672 50.4315 81.5942 51.5391C80.9212 52.6467 79.9608 53.502 78.7129 54.1049C77.4651 54.7218 75.9789 55.0793 74.2543 55.1775ZM82.7175 50.4455L82.9278 47.5011C83.5448 47.5011 84.0285 47.4591 84.379 47.3749C84.7435 47.2908 85.0029 47.1366 85.1571 46.9123C85.3114 46.6739 85.3885 46.3374 85.3885 45.9028C85.3885 45.5102 85.3324 45.0405 85.2202 44.4937C85.1221 43.9469 84.9889 43.379 84.8206 42.7902C84.6524 42.2013 84.4841 41.6615 84.3159 41.1708L87.2182 40.3716C87.3864 40.8483 87.5547 41.4021 87.7229 42.033C87.8912 42.664 88.0314 43.3159 88.1436 43.9889C88.2697 44.6479 88.3328 45.2859 88.3328 45.9028C88.3328 46.6739 88.2347 47.3259 88.0384 47.8587C87.8421 48.3774 87.5687 48.8121 87.2182 49.1626C86.8817 49.4991 86.4751 49.7655 85.9984 49.9618C85.5357 50.144 85.0239 50.2702 84.4631 50.3403C83.9023 50.4104 83.3204 50.4455 82.7175 50.4455ZM85.746 38.626C85.3114 38.626 84.9398 38.4788 84.6314 38.1844C84.3369 37.8899 84.1897 37.5254 84.1897 37.0907C84.1897 36.6561 84.3369 36.2845 84.6314 35.9761C84.9398 35.6676 85.3114 35.5134 85.746 35.5134C86.1666 35.5134 86.5242 35.6676 86.8186 35.9761C87.1271 36.2845 87.2813 36.6561 87.2813 37.0907C87.2813 37.5254 87.1271 37.8899 86.8186 38.1844C86.5242 38.4788 86.1666 38.626 85.746 38.626Z" fill="#C8C4C9"/>
</svg>
