<svg width="446" height="512" viewBox="0 0 446 512" fill="none" xmlns="http://www.w3.org/2000/svg">
<path d="M143.997 434.833C134.184 460.318 124.371 485.804 114.779 511.645C95.9792 512 76.9583 512 57.4688 512C64.3306 493.009 71.6189 474.003 79.0054 455.034C84.4999 440.924 90.1215 426.863 96.1725 412.419C111.963 419.203 127.27 426.343 142.56 433.518C143.121 433.782 143.522 434.387 143.997 434.833Z" fill="#687D87"/>
<path d="M301.469 512C297.961 503.563 295.065 495.071 291.853 486.701C285.294 469.606 278.565 452.577 271.948 434.899C272.71 433.886 273.413 433.457 274.154 433.109C288.308 426.441 302.464 419.776 316.631 413.137C317.651 412.659 318.764 412.377 319.833 412.004C329.864 438.24 339.898 464.476 349.925 490.714C352.545 497.571 355.145 504.437 357.877 511.65C339.312 512 320.625 512 301.469 512Z" fill="#687D87"/>
<path d="M387.625 0C388.665 14.3512 389.331 28.7025 389.961 43.8704C389.556 45.4117 389.341 46.2922 388.794 46.8384C368.624 66.961 348.423 87.0525 328.17 106.675C328.053 104.211 328.042 102.217 327.924 100.23C327.245 88.8194 326.54 77.41 325.844 66.0002C325.361 61.8203 327.409 58.9799 330.291 56.1348C347.392 39.2502 364.339 22.21 381.31 5.19364C382.696 3.80359 383.87 2.20111 385.071 0.348663C385.75 -2.98023e-08 386.5 0 387.625 0Z" fill="#324A5E"/>
<path d="M325.542 65.8595C326.54 77.4101 327.245 88.8194 327.924 100.23C328.043 102.217 328.053 104.211 328.005 106.967C325.078 110.47 322.258 113.208 319.21 115.611C272.454 74.5794 218.981 61.5476 159.922 79.2738C79.8314 103.313 32.8405 179.681 44.9472 262.477C55.7081 336.068 119.415 395.529 193.483 400.838C240.061 404.177 281.748 391.404 316.549 360.022C360.747 320.168 378.408 269.999 370.234 211.092C365.713 178.514 351.398 150.291 329.787 125.493C332.799 122.448 335.632 119.692 338.943 117.011C351.05 117.672 362.681 118.213 374.304 118.891C376.219 119.002 378.098 119.719 379.994 120.155C390.522 136.805 400.091 154.028 405.341 173.077C409.101 186.719 412.069 200.717 413.751 214.752C415.302 227.697 415.696 240.977 414.767 253.978C413.175 276.246 407.897 297.818 398.948 318.435C390.999 336.75 380.88 353.751 368.195 369.085C354.47 385.678 338.692 400.127 320.013 411.699C318.764 412.377 317.651 412.658 316.631 413.137C302.464 419.776 288.308 426.441 274.154 433.109C273.413 433.457 272.71 433.886 271.74 434.559C245.402 443.172 218.505 445.851 191.439 443.68C175.759 442.422 160.334 437.98 144.396 434.902C143.522 434.387 143.121 433.782 142.56 433.518C127.27 426.343 111.963 419.203 96.299 412.089C80.7645 402.311 67.1433 390.647 54.9164 377.378C39.357 360.494 26.2165 341.901 17.8919 320.405C12.7802 307.205 8.37484 293.662 4.74692 279.983C2.45456 271.339 2.00035 262.18 1.06186 253.216C0.409005 246.98 -0.0271492 240.678 0.0637138 234.415C0.448002 207.926 5.59192 182.37 15.6139 157.81C23.6571 138.1 34.4345 119.964 47.9986 103.637C69.2808 78.0196 95.5492 58.6802 126.096 45.6518C143.983 38.0229 162.67 32.3229 182.327 30.9961C193.694 30.2288 205.122 28.6585 216.438 29.2039C242.607 30.4653 268.141 35.5223 291.879 47.0981C303.308 52.6716 314.138 59.4733 325.542 65.8595Z" fill="#D44232"/>
<path d="M338.464 116.936C335.632 119.692 332.799 122.448 329.518 125.673C318.998 136.267 308.928 146.392 298.56 156.697C288.45 166.77 278.637 176.663 268.531 186.74C258.382 196.857 248.525 206.79 238.391 216.902C236.444 218.69 234.753 220.278 233.108 221.912C228.052 226.935 223.071 232.036 217.947 236.989C214.927 239.908 211.401 240.258 208.071 237.636C205.119 235.311 205.367 230.862 208.365 227.451C209.457 226.209 210.703 225.102 211.854 223.91C217.484 218.079 223.106 212.241 229.027 206.284C239.245 196.211 249.165 186.257 259.386 176.137C269.493 166.074 279.3 156.178 289.403 146.112C299.612 135.944 309.526 125.946 319.439 115.947C322.258 113.208 325.077 110.47 328.061 107.44C348.423 87.0525 368.624 66.961 388.794 46.8384C389.341 46.2922 389.556 45.4117 389.957 44.3368C394.617 39.5239 399.22 35.0343 403.884 30.6086C406.763 27.8764 410.475 26.4995 413.575 29.1309C415.525 30.7857 416.196 34.2177 416.846 36.9918C417.081 37.9951 415.792 39.6058 414.839 40.5937C410.358 45.2418 405.752 49.7698 400.775 54.7766C379.728 75.7869 359.096 96.3613 338.464 116.936Z" fill="#5BB4AA"/>
<path d="M338.942 117.011C359.096 96.3613 379.728 75.7869 400.677 55.0978C415.626 55.7401 430.258 56.497 445.642 57.2928C444.324 58.8614 443.58 59.8931 442.692 60.7818C423.891 79.6082 405.102 98.4469 386.201 117.174C384.806 118.556 382.587 119.108 380.372 120.101C378.098 119.719 376.219 119.002 374.304 118.891C362.681 118.213 351.049 117.672 338.942 117.011Z" fill="#334B5F"/>
<path d="M319.21 115.611C309.526 125.945 299.613 135.944 289.108 145.918C260.512 121.608 228.026 111.66 191.312 116.173C123.916 124.459 76.3288 189.228 87.8035 256.709C100.375 330.64 175.938 376.465 246.306 351.745C293.508 335.163 321.265 301.032 328.03 251.325C332.89 215.618 322.564 183.819 298.858 156.517C308.928 146.392 318.998 136.267 329.338 125.962C351.398 150.291 365.713 178.514 370.234 211.092C378.408 269.999 360.746 320.168 316.549 360.022C281.747 391.404 240.061 404.177 193.483 400.838C119.415 395.529 55.708 336.068 44.9472 262.477C32.8405 179.681 79.8313 103.313 159.922 79.2737C218.981 61.5475 272.454 74.5794 319.21 115.611Z" fill="#EFF2F4"/>
<path d="M298.56 156.697C322.564 183.819 332.89 215.618 328.03 251.325C321.265 301.032 293.508 335.163 246.306 351.745C175.938 376.465 100.375 330.64 87.8036 256.709C76.3289 189.228 123.916 124.459 191.313 116.173C228.026 111.66 260.512 121.608 288.812 146.088C279.3 156.178 269.493 166.074 259.08 175.957C237.967 159.402 214.75 153.743 189.155 159.795C148.692 169.363 122.169 209.426 129.439 249.222C137.266 292.072 174.701 320.503 217.11 315.091C247.747 311.181 269.584 294.472 280.992 265.875C292.324 237.472 287.721 210.721 268.824 186.556C278.637 176.663 288.45 166.77 298.56 156.697Z" fill="#D44332"/>
<path d="M268.531 186.74C287.721 210.721 292.323 237.472 280.992 265.875C269.583 294.472 247.747 311.181 217.11 315.091C174.7 320.503 137.266 292.072 129.438 249.222C122.169 209.426 148.692 169.363 189.155 159.795C214.75 153.743 237.967 159.402 258.78 176.124C249.165 186.257 239.245 196.211 228.657 206.095C226.839 205.362 225.713 204.649 224.532 204.043C210.488 196.84 193.352 199.459 182.079 210.516C170.881 221.497 167.848 238.22 174.489 252.363C181.229 266.714 196.226 274.986 211.975 273.276C238.14 270.434 253.743 240.83 238.668 216.724C248.525 206.79 258.382 196.857 268.531 186.74Z" fill="#EFF2F4"/>
<path d="M238.391 216.902C253.743 240.83 238.14 270.434 211.975 273.276C196.226 274.986 181.229 266.714 174.489 252.363C167.848 238.22 170.881 221.497 182.079 210.516C193.352 199.459 210.488 196.84 224.532 204.043C225.713 204.649 226.839 205.362 228.36 206.215C223.106 212.241 217.484 218.079 211.854 223.91C210.703 225.102 209.457 226.209 208.365 227.451C205.367 230.862 205.119 235.311 208.071 237.636C211.401 240.258 214.927 239.908 217.947 236.989C223.071 232.036 228.052 226.935 233.109 221.912C234.753 220.278 236.444 218.69 238.391 216.902Z" fill="#D44433"/>
</svg>
