<svg width="25" height="25" viewBox="0 0 25 25" fill="none" xmlns="http://www.w3.org/2000/svg">
<g clip-path="url(#clip0_629_576)">
<path d="M22.5926 6.5099C21.8315 6.84658 21.0243 7.0677 20.1978 7.16593C21.069 6.64493 21.721 5.82497 22.0323 4.85886C21.2148 5.3454 20.3185 5.68637 19.3843 5.87082C18.7568 5.19941 17.925 4.75414 17.0183 4.60421C16.1116 4.45428 15.1808 4.6081 14.3706 5.04176C13.5603 5.47542 12.9161 6.16462 12.5379 7.00221C12.1598 7.83981 12.069 8.77887 12.2796 9.6734C10.6217 9.5903 8.99978 9.15947 7.51919 8.40886C6.03859 7.65826 4.7324 6.60466 3.68541 5.31648C3.31481 5.95302 3.12006 6.67663 3.12111 7.41319C3.12111 8.85885 3.8569 10.136 4.97554 10.8838C4.31353 10.8629 3.6661 10.6841 3.08721 10.3623V10.4142C3.08741 11.377 3.42058 12.3101 4.03022 13.0553C4.63987 13.8005 5.48848 14.3119 6.43216 14.5029C5.81762 14.6694 5.17325 14.694 4.54782 14.5747C4.81389 15.4034 5.33247 16.1282 6.03096 16.6476C6.72945 17.1669 7.57287 17.4548 8.44312 17.471C7.5782 18.1503 6.58787 18.6524 5.52876 18.9487C4.46964 19.245 3.36251 19.3297 2.27066 19.1978C4.17663 20.4235 6.39537 21.0743 8.66147 21.0722C16.3314 21.0722 20.5258 14.7182 20.5258 9.2078C20.5258 9.02834 20.5209 8.84688 20.5129 8.66941C21.3293 8.07935 22.0339 7.3484 22.5936 6.5109L22.5926 6.5099Z" fill="white"/>
</g>
<defs>
<clipPath id="clip0_629_576">
<rect width="23.9281" height="23.9281" fill="white" transform="translate(0.497009 0.871094)"/>
</clipPath>
</defs>
</svg>
