<svg xmlns="http://www.w3.org/2000/svg" version="1.1" xmlns:xlink="http://www.w3.org/1999/xlink" xmlns:svgjs="http://svgjs.dev/svgjs" viewBox="0 0 800 800" opacity="0.56"><g stroke-width="1.5" stroke="hsla(0, 0%, 100%, 0.31)" fill="none" stroke-linecap="round" transform="matrix(1,0,0,1,-5,-627.9903202056885)"><path d="M10,10C19.02777777777778,10.833333333333334,33.19444444444444,19.625,53.333333333333336,14C73.47222222222223,8.375,84.44444444444446,-17.833333333333332,106.66666666666667,-17C128.88888888888889,-16.166666666666668,137.77777777777777,15.708333333333334,160,18C182.22222222222223,20.291666666666668,191.11111111111111,-8.083333333333334,213.33333333333334,-6C235.55555555555557,-3.9166666666666665,244.44444444444446,26.541666666666668,266.6666666666667,28C288.8888888888889,29.458333333333332,297.77777777777777,-1.0833333333333335,320,1C342.22222222222223,3.0833333333333335,351.11111111111114,39.041666666666664,373.33333333333337,38C395.5555555555556,36.958333333333336,404.44444444444446,-2.3333333333333335,426.6666666666667,-4C448.8888888888889,-5.666666666666666,457.77777777777777,27.083333333333332,480,30C502.22222222222223,32.916666666666664,511.11111111111114,7.916666666666666,533.3333333333334,10C555.5555555555557,12.083333333333334,564.4444444444446,41.458333333333336,586.6666666666667,40C608.8888888888889,38.541666666666664,617.7777777777778,1.3333333333333335,640,3C662.2222222222222,4.666666666666666,671.1111111111111,45.5,693.3333333333334,48C715.5555555555557,50.5,724.4444444444446,12.916666666666666,746.6666666666667,15C768.8888888888889,17.083333333333332,788.8888888888889,49.041666666666664,800,58"></path><path d="M10,10C19.02777777777778,10.833333333333334,33.19444444444444,19.625,53.333333333333336,14C73.47222222222223,8.375,84.44444444444446,-17.833333333333332,106.66666666666667,-17C128.88888888888889,-16.166666666666668,137.77777777777777,15.708333333333334,160,18C182.22222222222223,20.291666666666668,191.11111111111111,-8.083333333333334,213.33333333333334,-6C235.55555555555557,-3.9166666666666665,244.44444444444446,26.541666666666668,266.6666666666667,28C288.8888888888889,29.458333333333332,297.77777777777777,-1.0833333333333335,320,1C342.22222222222223,3.0833333333333335,351.11111111111114,39.041666666666664,373.33333333333337,38C395.5555555555556,36.958333333333336,404.44444444444446,-2.3333333333333335,426.6666666666667,-4C448.8888888888889,-5.666666666666666,457.77777777777777,27.083333333333332,480,30C502.22222222222223,32.916666666666664,511.11111111111114,7.916666666666666,533.3333333333334,10C555.5555555555557,12.083333333333334,564.4444444444446,41.458333333333336,586.6666666666667,40C608.8888888888889,38.541666666666664,617.7777777777778,1.3333333333333335,640,3C662.2222222222222,4.666666666666666,671.1111111111111,45.5,693.3333333333334,48C715.5555555555557,50.5,724.4444444444446,12.916666666666666,746.6666666666667,15C768.8888888888889,17.083333333333332,788.8888888888889,49.041666666666664,800,58" transform="matrix(1,0,0,1,0,2015)"></path><path d="M10,10C19.02777777777778,10.833333333333334,33.19444444444444,19.625,53.333333333333336,14C73.47222222222223,8.375,84.44444444444446,-17.833333333333332,106.66666666666667,-17C128.88888888888889,-16.166666666666668,137.77777777777777,15.708333333333334,160,18C182.22222222222223,20.291666666666668,191.11111111111111,-8.083333333333334,213.33333333333334,-6C235.55555555555557,-3.9166666666666665,244.44444444444446,26.541666666666668,266.6666666666667,28C288.8888888888889,29.458333333333332,297.77777777777777,-1.0833333333333335,320,1C342.22222222222223,3.0833333333333335,351.11111111111114,39.041666666666664,373.33333333333337,38C395.5555555555556,36.958333333333336,404.44444444444446,-2.3333333333333335,426.6666666666667,-4C448.8888888888889,-5.666666666666666,457.77777777777777,27.083333333333332,480,30C502.22222222222223,32.916666666666664,511.11111111111114,7.916666666666666,533.3333333333334,10C555.5555555555557,12.083333333333334,564.4444444444446,41.458333333333336,586.6666666666667,40C608.8888888888889,38.541666666666664,617.7777777777778,1.3333333333333335,640,3C662.2222222222222,4.666666666666666,671.1111111111111,45.5,693.3333333333334,48C715.5555555555557,50.5,724.4444444444446,12.916666666666666,746.6666666666667,15C768.8888888888889,17.083333333333332,788.8888888888889,49.041666666666664,800,58" transform="matrix(1,0,0,1,0,1984)"></path><path d="M10,10C19.02777777777778,10.833333333333334,33.19444444444444,19.625,53.333333333333336,14C73.47222222222223,8.375,84.44444444444446,-17.833333333333332,106.66666666666667,-17C128.88888888888889,-16.166666666666668,137.77777777777777,15.708333333333334,160,18C182.22222222222223,20.291666666666668,191.11111111111111,-8.083333333333334,213.33333333333334,-6C235.55555555555557,-3.9166666666666665,244.44444444444446,26.541666666666668,266.6666666666667,28C288.8888888888889,29.458333333333332,297.77777777777777,-1.0833333333333335,320,1C342.22222222222223,3.0833333333333335,351.11111111111114,39.041666666666664,373.33333333333337,38C395.5555555555556,36.958333333333336,404.44444444444446,-2.3333333333333335,426.6666666666667,-4C448.8888888888889,-5.666666666666666,457.77777777777777,27.083333333333332,480,30C502.22222222222223,32.916666666666664,511.11111111111114,7.916666666666666,533.3333333333334,10C555.5555555555557,12.083333333333334,564.4444444444446,41.458333333333336,586.6666666666667,40C608.8888888888889,38.541666666666664,617.7777777777778,1.3333333333333335,640,3C662.2222222222222,4.666666666666666,671.1111111111111,45.5,693.3333333333334,48C715.5555555555557,50.5,724.4444444444446,12.916666666666666,746.6666666666667,15C768.8888888888889,17.083333333333332,788.8888888888889,49.041666666666664,800,58" transform="matrix(1,0,0,1,0,1953)"></path><path d="M10,10C19.02777777777778,10.833333333333334,33.19444444444444,19.625,53.333333333333336,14C73.47222222222223,8.375,84.44444444444446,-17.833333333333332,106.66666666666667,-17C128.88888888888889,-16.166666666666668,137.77777777777777,15.708333333333334,160,18C182.22222222222223,20.291666666666668,191.11111111111111,-8.083333333333334,213.33333333333334,-6C235.55555555555557,-3.9166666666666665,244.44444444444446,26.541666666666668,266.6666666666667,28C288.8888888888889,29.458333333333332,297.77777777777777,-1.0833333333333335,320,1C342.22222222222223,3.0833333333333335,351.11111111111114,39.041666666666664,373.33333333333337,38C395.5555555555556,36.958333333333336,404.44444444444446,-2.3333333333333335,426.6666666666667,-4C448.8888888888889,-5.666666666666666,457.77777777777777,27.083333333333332,480,30C502.22222222222223,32.916666666666664,511.11111111111114,7.916666666666666,533.3333333333334,10C555.5555555555557,12.083333333333334,564.4444444444446,41.458333333333336,586.6666666666667,40C608.8888888888889,38.541666666666664,617.7777777777778,1.3333333333333335,640,3C662.2222222222222,4.666666666666666,671.1111111111111,45.5,693.3333333333334,48C715.5555555555557,50.5,724.4444444444446,12.916666666666666,746.6666666666667,15C768.8888888888889,17.083333333333332,788.8888888888889,49.041666666666664,800,58" transform="matrix(1,0,0,1,0,1922)"></path><path d="M10,10C19.02777777777778,10.833333333333334,33.19444444444444,19.625,53.333333333333336,14C73.47222222222223,8.375,84.44444444444446,-17.833333333333332,106.66666666666667,-17C128.88888888888889,-16.166666666666668,137.77777777777777,15.708333333333334,160,18C182.22222222222223,20.291666666666668,191.11111111111111,-8.083333333333334,213.33333333333334,-6C235.55555555555557,-3.9166666666666665,244.44444444444446,26.541666666666668,266.6666666666667,28C288.8888888888889,29.458333333333332,297.77777777777777,-1.0833333333333335,320,1C342.22222222222223,3.0833333333333335,351.11111111111114,39.041666666666664,373.33333333333337,38C395.5555555555556,36.958333333333336,404.44444444444446,-2.3333333333333335,426.6666666666667,-4C448.8888888888889,-5.666666666666666,457.77777777777777,27.083333333333332,480,30C502.22222222222223,32.916666666666664,511.11111111111114,7.916666666666666,533.3333333333334,10C555.5555555555557,12.083333333333334,564.4444444444446,41.458333333333336,586.6666666666667,40C608.8888888888889,38.541666666666664,617.7777777777778,1.3333333333333335,640,3C662.2222222222222,4.666666666666666,671.1111111111111,45.5,693.3333333333334,48C715.5555555555557,50.5,724.4444444444446,12.916666666666666,746.6666666666667,15C768.8888888888889,17.083333333333332,788.8888888888889,49.041666666666664,800,58" transform="matrix(1,0,0,1,0,1891)"></path><path d="M10,10C19.02777777777778,10.833333333333334,33.19444444444444,19.625,53.333333333333336,14C73.47222222222223,8.375,84.44444444444446,-17.833333333333332,106.66666666666667,-17C128.88888888888889,-16.166666666666668,137.77777777777777,15.708333333333334,160,18C182.22222222222223,20.291666666666668,191.11111111111111,-8.083333333333334,213.33333333333334,-6C235.55555555555557,-3.9166666666666665,244.44444444444446,26.541666666666668,266.6666666666667,28C288.8888888888889,29.458333333333332,297.77777777777777,-1.0833333333333335,320,1C342.22222222222223,3.0833333333333335,351.11111111111114,39.041666666666664,373.33333333333337,38C395.5555555555556,36.958333333333336,404.44444444444446,-2.3333333333333335,426.6666666666667,-4C448.8888888888889,-5.666666666666666,457.77777777777777,27.083333333333332,480,30C502.22222222222223,32.916666666666664,511.11111111111114,7.916666666666666,533.3333333333334,10C555.5555555555557,12.083333333333334,564.4444444444446,41.458333333333336,586.6666666666667,40C608.8888888888889,38.541666666666664,617.7777777777778,1.3333333333333335,640,3C662.2222222222222,4.666666666666666,671.1111111111111,45.5,693.3333333333334,48C715.5555555555557,50.5,724.4444444444446,12.916666666666666,746.6666666666667,15C768.8888888888889,17.083333333333332,788.8888888888889,49.041666666666664,800,58" transform="matrix(1,0,0,1,0,1860)"></path><path d="M10,10C19.02777777777778,10.833333333333334,33.19444444444444,19.625,53.333333333333336,14C73.47222222222223,8.375,84.44444444444446,-17.833333333333332,106.66666666666667,-17C128.88888888888889,-16.166666666666668,137.77777777777777,15.708333333333334,160,18C182.22222222222223,20.291666666666668,191.11111111111111,-8.083333333333334,213.33333333333334,-6C235.55555555555557,-3.9166666666666665,244.44444444444446,26.541666666666668,266.6666666666667,28C288.8888888888889,29.458333333333332,297.77777777777777,-1.0833333333333335,320,1C342.22222222222223,3.0833333333333335,351.11111111111114,39.041666666666664,373.33333333333337,38C395.5555555555556,36.958333333333336,404.44444444444446,-2.3333333333333335,426.6666666666667,-4C448.8888888888889,-5.666666666666666,457.77777777777777,27.083333333333332,480,30C502.22222222222223,32.916666666666664,511.11111111111114,7.916666666666666,533.3333333333334,10C555.5555555555557,12.083333333333334,564.4444444444446,41.458333333333336,586.6666666666667,40C608.8888888888889,38.541666666666664,617.7777777777778,1.3333333333333335,640,3C662.2222222222222,4.666666666666666,671.1111111111111,45.5,693.3333333333334,48C715.5555555555557,50.5,724.4444444444446,12.916666666666666,746.6666666666667,15C768.8888888888889,17.083333333333332,788.8888888888889,49.041666666666664,800,58" transform="matrix(1,0,0,1,0,1829)"></path><path d="M10,10C19.02777777777778,10.833333333333334,33.19444444444444,19.625,53.333333333333336,14C73.47222222222223,8.375,84.44444444444446,-17.833333333333332,106.66666666666667,-17C128.88888888888889,-16.166666666666668,137.77777777777777,15.708333333333334,160,18C182.22222222222223,20.291666666666668,191.11111111111111,-8.083333333333334,213.33333333333334,-6C235.55555555555557,-3.9166666666666665,244.44444444444446,26.541666666666668,266.6666666666667,28C288.8888888888889,29.458333333333332,297.77777777777777,-1.0833333333333335,320,1C342.22222222222223,3.0833333333333335,351.11111111111114,39.041666666666664,373.33333333333337,38C395.5555555555556,36.958333333333336,404.44444444444446,-2.3333333333333335,426.6666666666667,-4C448.8888888888889,-5.666666666666666,457.77777777777777,27.083333333333332,480,30C502.22222222222223,32.916666666666664,511.11111111111114,7.916666666666666,533.3333333333334,10C555.5555555555557,12.083333333333334,564.4444444444446,41.458333333333336,586.6666666666667,40C608.8888888888889,38.541666666666664,617.7777777777778,1.3333333333333335,640,3C662.2222222222222,4.666666666666666,671.1111111111111,45.5,693.3333333333334,48C715.5555555555557,50.5,724.4444444444446,12.916666666666666,746.6666666666667,15C768.8888888888889,17.083333333333332,788.8888888888889,49.041666666666664,800,58" transform="matrix(1,0,0,1,0,1798)"></path><path d="M10,10C19.02777777777778,10.833333333333334,33.19444444444444,19.625,53.333333333333336,14C73.47222222222223,8.375,84.44444444444446,-17.833333333333332,106.66666666666667,-17C128.88888888888889,-16.166666666666668,137.77777777777777,15.708333333333334,160,18C182.22222222222223,20.291666666666668,191.11111111111111,-8.083333333333334,213.33333333333334,-6C235.55555555555557,-3.9166666666666665,244.44444444444446,26.541666666666668,266.6666666666667,28C288.8888888888889,29.458333333333332,297.77777777777777,-1.0833333333333335,320,1C342.22222222222223,3.0833333333333335,351.11111111111114,39.041666666666664,373.33333333333337,38C395.5555555555556,36.958333333333336,404.44444444444446,-2.3333333333333335,426.6666666666667,-4C448.8888888888889,-5.666666666666666,457.77777777777777,27.083333333333332,480,30C502.22222222222223,32.916666666666664,511.11111111111114,7.916666666666666,533.3333333333334,10C555.5555555555557,12.083333333333334,564.4444444444446,41.458333333333336,586.6666666666667,40C608.8888888888889,38.541666666666664,617.7777777777778,1.3333333333333335,640,3C662.2222222222222,4.666666666666666,671.1111111111111,45.5,693.3333333333334,48C715.5555555555557,50.5,724.4444444444446,12.916666666666666,746.6666666666667,15C768.8888888888889,17.083333333333332,788.8888888888889,49.041666666666664,800,58" transform="matrix(1,0,0,1,0,1767)"></path><path d="M10,10C19.02777777777778,10.833333333333334,33.19444444444444,19.625,53.333333333333336,14C73.47222222222223,8.375,84.44444444444446,-17.833333333333332,106.66666666666667,-17C128.88888888888889,-16.166666666666668,137.77777777777777,15.708333333333334,160,18C182.22222222222223,20.291666666666668,191.11111111111111,-8.083333333333334,213.33333333333334,-6C235.55555555555557,-3.9166666666666665,244.44444444444446,26.541666666666668,266.6666666666667,28C288.8888888888889,29.458333333333332,297.77777777777777,-1.0833333333333335,320,1C342.22222222222223,3.0833333333333335,351.11111111111114,39.041666666666664,373.33333333333337,38C395.5555555555556,36.958333333333336,404.44444444444446,-2.3333333333333335,426.6666666666667,-4C448.8888888888889,-5.666666666666666,457.77777777777777,27.083333333333332,480,30C502.22222222222223,32.916666666666664,511.11111111111114,7.916666666666666,533.3333333333334,10C555.5555555555557,12.083333333333334,564.4444444444446,41.458333333333336,586.6666666666667,40C608.8888888888889,38.541666666666664,617.7777777777778,1.3333333333333335,640,3C662.2222222222222,4.666666666666666,671.1111111111111,45.5,693.3333333333334,48C715.5555555555557,50.5,724.4444444444446,12.916666666666666,746.6666666666667,15C768.8888888888889,17.083333333333332,788.8888888888889,49.041666666666664,800,58" transform="matrix(1,0,0,1,0,1736)"></path><path d="M10,10C19.02777777777778,10.833333333333334,33.19444444444444,19.625,53.333333333333336,14C73.47222222222223,8.375,84.44444444444446,-17.833333333333332,106.66666666666667,-17C128.88888888888889,-16.166666666666668,137.77777777777777,15.708333333333334,160,18C182.22222222222223,20.291666666666668,191.11111111111111,-8.083333333333334,213.33333333333334,-6C235.55555555555557,-3.9166666666666665,244.44444444444446,26.541666666666668,266.6666666666667,28C288.8888888888889,29.458333333333332,297.77777777777777,-1.0833333333333335,320,1C342.22222222222223,3.0833333333333335,351.11111111111114,39.041666666666664,373.33333333333337,38C395.5555555555556,36.958333333333336,404.44444444444446,-2.3333333333333335,426.6666666666667,-4C448.8888888888889,-5.666666666666666,457.77777777777777,27.083333333333332,480,30C502.22222222222223,32.916666666666664,511.11111111111114,7.916666666666666,533.3333333333334,10C555.5555555555557,12.083333333333334,564.4444444444446,41.458333333333336,586.6666666666667,40C608.8888888888889,38.541666666666664,617.7777777777778,1.3333333333333335,640,3C662.2222222222222,4.666666666666666,671.1111111111111,45.5,693.3333333333334,48C715.5555555555557,50.5,724.4444444444446,12.916666666666666,746.6666666666667,15C768.8888888888889,17.083333333333332,788.8888888888889,49.041666666666664,800,58" transform="matrix(1,0,0,1,0,1705)"></path><path d="M10,10C19.02777777777778,10.833333333333334,33.19444444444444,19.625,53.333333333333336,14C73.47222222222223,8.375,84.44444444444446,-17.833333333333332,106.66666666666667,-17C128.88888888888889,-16.166666666666668,137.77777777777777,15.708333333333334,160,18C182.22222222222223,20.291666666666668,191.11111111111111,-8.083333333333334,213.33333333333334,-6C235.55555555555557,-3.9166666666666665,244.44444444444446,26.541666666666668,266.6666666666667,28C288.8888888888889,29.458333333333332,297.77777777777777,-1.0833333333333335,320,1C342.22222222222223,3.0833333333333335,351.11111111111114,39.041666666666664,373.33333333333337,38C395.5555555555556,36.958333333333336,404.44444444444446,-2.3333333333333335,426.6666666666667,-4C448.8888888888889,-5.666666666666666,457.77777777777777,27.083333333333332,480,30C502.22222222222223,32.916666666666664,511.11111111111114,7.916666666666666,533.3333333333334,10C555.5555555555557,12.083333333333334,564.4444444444446,41.458333333333336,586.6666666666667,40C608.8888888888889,38.541666666666664,617.7777777777778,1.3333333333333335,640,3C662.2222222222222,4.666666666666666,671.1111111111111,45.5,693.3333333333334,48C715.5555555555557,50.5,724.4444444444446,12.916666666666666,746.6666666666667,15C768.8888888888889,17.083333333333332,788.8888888888889,49.041666666666664,800,58" transform="matrix(1,0,0,1,0,1674)"></path><path d="M10,10C19.02777777777778,10.833333333333334,33.19444444444444,19.625,53.333333333333336,14C73.47222222222223,8.375,84.44444444444446,-17.833333333333332,106.66666666666667,-17C128.88888888888889,-16.166666666666668,137.77777777777777,15.708333333333334,160,18C182.22222222222223,20.291666666666668,191.11111111111111,-8.083333333333334,213.33333333333334,-6C235.55555555555557,-3.9166666666666665,244.44444444444446,26.541666666666668,266.6666666666667,28C288.8888888888889,29.458333333333332,297.77777777777777,-1.0833333333333335,320,1C342.22222222222223,3.0833333333333335,351.11111111111114,39.041666666666664,373.33333333333337,38C395.5555555555556,36.958333333333336,404.44444444444446,-2.3333333333333335,426.6666666666667,-4C448.8888888888889,-5.666666666666666,457.77777777777777,27.083333333333332,480,30C502.22222222222223,32.916666666666664,511.11111111111114,7.916666666666666,533.3333333333334,10C555.5555555555557,12.083333333333334,564.4444444444446,41.458333333333336,586.6666666666667,40C608.8888888888889,38.541666666666664,617.7777777777778,1.3333333333333335,640,3C662.2222222222222,4.666666666666666,671.1111111111111,45.5,693.3333333333334,48C715.5555555555557,50.5,724.4444444444446,12.916666666666666,746.6666666666667,15C768.8888888888889,17.083333333333332,788.8888888888889,49.041666666666664,800,58" transform="matrix(1,0,0,1,0,1643)"></path><path d="M10,10C19.02777777777778,10.833333333333334,33.19444444444444,19.625,53.333333333333336,14C73.47222222222223,8.375,84.44444444444446,-17.833333333333332,106.66666666666667,-17C128.88888888888889,-16.166666666666668,137.77777777777777,15.708333333333334,160,18C182.22222222222223,20.291666666666668,191.11111111111111,-8.083333333333334,213.33333333333334,-6C235.55555555555557,-3.9166666666666665,244.44444444444446,26.541666666666668,266.6666666666667,28C288.8888888888889,29.458333333333332,297.77777777777777,-1.0833333333333335,320,1C342.22222222222223,3.0833333333333335,351.11111111111114,39.041666666666664,373.33333333333337,38C395.5555555555556,36.958333333333336,404.44444444444446,-2.3333333333333335,426.6666666666667,-4C448.8888888888889,-5.666666666666666,457.77777777777777,27.083333333333332,480,30C502.22222222222223,32.916666666666664,511.11111111111114,7.916666666666666,533.3333333333334,10C555.5555555555557,12.083333333333334,564.4444444444446,41.458333333333336,586.6666666666667,40C608.8888888888889,38.541666666666664,617.7777777777778,1.3333333333333335,640,3C662.2222222222222,4.666666666666666,671.1111111111111,45.5,693.3333333333334,48C715.5555555555557,50.5,724.4444444444446,12.916666666666666,746.6666666666667,15C768.8888888888889,17.083333333333332,788.8888888888889,49.041666666666664,800,58" transform="matrix(1,0,0,1,0,1612)"></path><path d="M10,10C19.02777777777778,10.833333333333334,33.19444444444444,19.625,53.333333333333336,14C73.47222222222223,8.375,84.44444444444446,-17.833333333333332,106.66666666666667,-17C128.88888888888889,-16.166666666666668,137.77777777777777,15.708333333333334,160,18C182.22222222222223,20.291666666666668,191.11111111111111,-8.083333333333334,213.33333333333334,-6C235.55555555555557,-3.9166666666666665,244.44444444444446,26.541666666666668,266.6666666666667,28C288.8888888888889,29.458333333333332,297.77777777777777,-1.0833333333333335,320,1C342.22222222222223,3.0833333333333335,351.11111111111114,39.041666666666664,373.33333333333337,38C395.5555555555556,36.958333333333336,404.44444444444446,-2.3333333333333335,426.6666666666667,-4C448.8888888888889,-5.666666666666666,457.77777777777777,27.083333333333332,480,30C502.22222222222223,32.916666666666664,511.11111111111114,7.916666666666666,533.3333333333334,10C555.5555555555557,12.083333333333334,564.4444444444446,41.458333333333336,586.6666666666667,40C608.8888888888889,38.541666666666664,617.7777777777778,1.3333333333333335,640,3C662.2222222222222,4.666666666666666,671.1111111111111,45.5,693.3333333333334,48C715.5555555555557,50.5,724.4444444444446,12.916666666666666,746.6666666666667,15C768.8888888888889,17.083333333333332,788.8888888888889,49.041666666666664,800,58" transform="matrix(1,0,0,1,0,1581)"></path><path d="M10,10C19.02777777777778,10.833333333333334,33.19444444444444,19.625,53.333333333333336,14C73.47222222222223,8.375,84.44444444444446,-17.833333333333332,106.66666666666667,-17C128.88888888888889,-16.166666666666668,137.77777777777777,15.708333333333334,160,18C182.22222222222223,20.291666666666668,191.11111111111111,-8.083333333333334,213.33333333333334,-6C235.55555555555557,-3.9166666666666665,244.44444444444446,26.541666666666668,266.6666666666667,28C288.8888888888889,29.458333333333332,297.77777777777777,-1.0833333333333335,320,1C342.22222222222223,3.0833333333333335,351.11111111111114,39.041666666666664,373.33333333333337,38C395.5555555555556,36.958333333333336,404.44444444444446,-2.3333333333333335,426.6666666666667,-4C448.8888888888889,-5.666666666666666,457.77777777777777,27.083333333333332,480,30C502.22222222222223,32.916666666666664,511.11111111111114,7.916666666666666,533.3333333333334,10C555.5555555555557,12.083333333333334,564.4444444444446,41.458333333333336,586.6666666666667,40C608.8888888888889,38.541666666666664,617.7777777777778,1.3333333333333335,640,3C662.2222222222222,4.666666666666666,671.1111111111111,45.5,693.3333333333334,48C715.5555555555557,50.5,724.4444444444446,12.916666666666666,746.6666666666667,15C768.8888888888889,17.083333333333332,788.8888888888889,49.041666666666664,800,58" transform="matrix(1,0,0,1,0,1550)"></path><path d="M10,10C19.02777777777778,10.833333333333334,33.19444444444444,19.625,53.333333333333336,14C73.47222222222223,8.375,84.44444444444446,-17.833333333333332,106.66666666666667,-17C128.88888888888889,-16.166666666666668,137.77777777777777,15.708333333333334,160,18C182.22222222222223,20.291666666666668,191.11111111111111,-8.083333333333334,213.33333333333334,-6C235.55555555555557,-3.9166666666666665,244.44444444444446,26.541666666666668,266.6666666666667,28C288.8888888888889,29.458333333333332,297.77777777777777,-1.0833333333333335,320,1C342.22222222222223,3.0833333333333335,351.11111111111114,39.041666666666664,373.33333333333337,38C395.5555555555556,36.958333333333336,404.44444444444446,-2.3333333333333335,426.6666666666667,-4C448.8888888888889,-5.666666666666666,457.77777777777777,27.083333333333332,480,30C502.22222222222223,32.916666666666664,511.11111111111114,7.916666666666666,533.3333333333334,10C555.5555555555557,12.083333333333334,564.4444444444446,41.458333333333336,586.6666666666667,40C608.8888888888889,38.541666666666664,617.7777777777778,1.3333333333333335,640,3C662.2222222222222,4.666666666666666,671.1111111111111,45.5,693.3333333333334,48C715.5555555555557,50.5,724.4444444444446,12.916666666666666,746.6666666666667,15C768.8888888888889,17.083333333333332,788.8888888888889,49.041666666666664,800,58" transform="matrix(1,0,0,1,0,1519)"></path><path d="M10,10C19.02777777777778,10.833333333333334,33.19444444444444,19.625,53.333333333333336,14C73.47222222222223,8.375,84.44444444444446,-17.833333333333332,106.66666666666667,-17C128.88888888888889,-16.166666666666668,137.77777777777777,15.708333333333334,160,18C182.22222222222223,20.291666666666668,191.11111111111111,-8.083333333333334,213.33333333333334,-6C235.55555555555557,-3.9166666666666665,244.44444444444446,26.541666666666668,266.6666666666667,28C288.8888888888889,29.458333333333332,297.77777777777777,-1.0833333333333335,320,1C342.22222222222223,3.0833333333333335,351.11111111111114,39.041666666666664,373.33333333333337,38C395.5555555555556,36.958333333333336,404.44444444444446,-2.3333333333333335,426.6666666666667,-4C448.8888888888889,-5.666666666666666,457.77777777777777,27.083333333333332,480,30C502.22222222222223,32.916666666666664,511.11111111111114,7.916666666666666,533.3333333333334,10C555.5555555555557,12.083333333333334,564.4444444444446,41.458333333333336,586.6666666666667,40C608.8888888888889,38.541666666666664,617.7777777777778,1.3333333333333335,640,3C662.2222222222222,4.666666666666666,671.1111111111111,45.5,693.3333333333334,48C715.5555555555557,50.5,724.4444444444446,12.916666666666666,746.6666666666667,15C768.8888888888889,17.083333333333332,788.8888888888889,49.041666666666664,800,58" transform="matrix(1,0,0,1,0,1488)"></path><path d="M10,10C19.02777777777778,10.833333333333334,33.19444444444444,19.625,53.333333333333336,14C73.47222222222223,8.375,84.44444444444446,-17.833333333333332,106.66666666666667,-17C128.88888888888889,-16.166666666666668,137.77777777777777,15.708333333333334,160,18C182.22222222222223,20.291666666666668,191.11111111111111,-8.083333333333334,213.33333333333334,-6C235.55555555555557,-3.9166666666666665,244.44444444444446,26.541666666666668,266.6666666666667,28C288.8888888888889,29.458333333333332,297.77777777777777,-1.0833333333333335,320,1C342.22222222222223,3.0833333333333335,351.11111111111114,39.041666666666664,373.33333333333337,38C395.5555555555556,36.958333333333336,404.44444444444446,-2.3333333333333335,426.6666666666667,-4C448.8888888888889,-5.666666666666666,457.77777777777777,27.083333333333332,480,30C502.22222222222223,32.916666666666664,511.11111111111114,7.916666666666666,533.3333333333334,10C555.5555555555557,12.083333333333334,564.4444444444446,41.458333333333336,586.6666666666667,40C608.8888888888889,38.541666666666664,617.7777777777778,1.3333333333333335,640,3C662.2222222222222,4.666666666666666,671.1111111111111,45.5,693.3333333333334,48C715.5555555555557,50.5,724.4444444444446,12.916666666666666,746.6666666666667,15C768.8888888888889,17.083333333333332,788.8888888888889,49.041666666666664,800,58" transform="matrix(1,0,0,1,0,1457)"></path><path d="M10,10C19.02777777777778,10.833333333333334,33.19444444444444,19.625,53.333333333333336,14C73.47222222222223,8.375,84.44444444444446,-17.833333333333332,106.66666666666667,-17C128.88888888888889,-16.166666666666668,137.77777777777777,15.708333333333334,160,18C182.22222222222223,20.291666666666668,191.11111111111111,-8.083333333333334,213.33333333333334,-6C235.55555555555557,-3.9166666666666665,244.44444444444446,26.541666666666668,266.6666666666667,28C288.8888888888889,29.458333333333332,297.77777777777777,-1.0833333333333335,320,1C342.22222222222223,3.0833333333333335,351.11111111111114,39.041666666666664,373.33333333333337,38C395.5555555555556,36.958333333333336,404.44444444444446,-2.3333333333333335,426.6666666666667,-4C448.8888888888889,-5.666666666666666,457.77777777777777,27.083333333333332,480,30C502.22222222222223,32.916666666666664,511.11111111111114,7.916666666666666,533.3333333333334,10C555.5555555555557,12.083333333333334,564.4444444444446,41.458333333333336,586.6666666666667,40C608.8888888888889,38.541666666666664,617.7777777777778,1.3333333333333335,640,3C662.2222222222222,4.666666666666666,671.1111111111111,45.5,693.3333333333334,48C715.5555555555557,50.5,724.4444444444446,12.916666666666666,746.6666666666667,15C768.8888888888889,17.083333333333332,788.8888888888889,49.041666666666664,800,58" transform="matrix(1,0,0,1,0,1426)"></path><path d="M10,10C19.02777777777778,10.833333333333334,33.19444444444444,19.625,53.333333333333336,14C73.47222222222223,8.375,84.44444444444446,-17.833333333333332,106.66666666666667,-17C128.88888888888889,-16.166666666666668,137.77777777777777,15.708333333333334,160,18C182.22222222222223,20.291666666666668,191.11111111111111,-8.083333333333334,213.33333333333334,-6C235.55555555555557,-3.9166666666666665,244.44444444444446,26.541666666666668,266.6666666666667,28C288.8888888888889,29.458333333333332,297.77777777777777,-1.0833333333333335,320,1C342.22222222222223,3.0833333333333335,351.11111111111114,39.041666666666664,373.33333333333337,38C395.5555555555556,36.958333333333336,404.44444444444446,-2.3333333333333335,426.6666666666667,-4C448.8888888888889,-5.666666666666666,457.77777777777777,27.083333333333332,480,30C502.22222222222223,32.916666666666664,511.11111111111114,7.916666666666666,533.3333333333334,10C555.5555555555557,12.083333333333334,564.4444444444446,41.458333333333336,586.6666666666667,40C608.8888888888889,38.541666666666664,617.7777777777778,1.3333333333333335,640,3C662.2222222222222,4.666666666666666,671.1111111111111,45.5,693.3333333333334,48C715.5555555555557,50.5,724.4444444444446,12.916666666666666,746.6666666666667,15C768.8888888888889,17.083333333333332,788.8888888888889,49.041666666666664,800,58" transform="matrix(1,0,0,1,0,1395)"></path><path d="M10,10C19.02777777777778,10.833333333333334,33.19444444444444,19.625,53.333333333333336,14C73.47222222222223,8.375,84.44444444444446,-17.833333333333332,106.66666666666667,-17C128.88888888888889,-16.166666666666668,137.77777777777777,15.708333333333334,160,18C182.22222222222223,20.291666666666668,191.11111111111111,-8.083333333333334,213.33333333333334,-6C235.55555555555557,-3.9166666666666665,244.44444444444446,26.541666666666668,266.6666666666667,28C288.8888888888889,29.458333333333332,297.77777777777777,-1.0833333333333335,320,1C342.22222222222223,3.0833333333333335,351.11111111111114,39.041666666666664,373.33333333333337,38C395.5555555555556,36.958333333333336,404.44444444444446,-2.3333333333333335,426.6666666666667,-4C448.8888888888889,-5.666666666666666,457.77777777777777,27.083333333333332,480,30C502.22222222222223,32.916666666666664,511.11111111111114,7.916666666666666,533.3333333333334,10C555.5555555555557,12.083333333333334,564.4444444444446,41.458333333333336,586.6666666666667,40C608.8888888888889,38.541666666666664,617.7777777777778,1.3333333333333335,640,3C662.2222222222222,4.666666666666666,671.1111111111111,45.5,693.3333333333334,48C715.5555555555557,50.5,724.4444444444446,12.916666666666666,746.6666666666667,15C768.8888888888889,17.083333333333332,788.8888888888889,49.041666666666664,800,58" transform="matrix(1,0,0,1,0,1364)"></path><path d="M10,10C19.02777777777778,10.833333333333334,33.19444444444444,19.625,53.333333333333336,14C73.47222222222223,8.375,84.44444444444446,-17.833333333333332,106.66666666666667,-17C128.88888888888889,-16.166666666666668,137.77777777777777,15.708333333333334,160,18C182.22222222222223,20.291666666666668,191.11111111111111,-8.083333333333334,213.33333333333334,-6C235.55555555555557,-3.9166666666666665,244.44444444444446,26.541666666666668,266.6666666666667,28C288.8888888888889,29.458333333333332,297.77777777777777,-1.0833333333333335,320,1C342.22222222222223,3.0833333333333335,351.11111111111114,39.041666666666664,373.33333333333337,38C395.5555555555556,36.958333333333336,404.44444444444446,-2.3333333333333335,426.6666666666667,-4C448.8888888888889,-5.666666666666666,457.77777777777777,27.083333333333332,480,30C502.22222222222223,32.916666666666664,511.11111111111114,7.916666666666666,533.3333333333334,10C555.5555555555557,12.083333333333334,564.4444444444446,41.458333333333336,586.6666666666667,40C608.8888888888889,38.541666666666664,617.7777777777778,1.3333333333333335,640,3C662.2222222222222,4.666666666666666,671.1111111111111,45.5,693.3333333333334,48C715.5555555555557,50.5,724.4444444444446,12.916666666666666,746.6666666666667,15C768.8888888888889,17.083333333333332,788.8888888888889,49.041666666666664,800,58" transform="matrix(1,0,0,1,0,1333)"></path><path d="M10,10C19.02777777777778,10.833333333333334,33.19444444444444,19.625,53.333333333333336,14C73.47222222222223,8.375,84.44444444444446,-17.833333333333332,106.66666666666667,-17C128.88888888888889,-16.166666666666668,137.77777777777777,15.708333333333334,160,18C182.22222222222223,20.291666666666668,191.11111111111111,-8.083333333333334,213.33333333333334,-6C235.55555555555557,-3.9166666666666665,244.44444444444446,26.541666666666668,266.6666666666667,28C288.8888888888889,29.458333333333332,297.77777777777777,-1.0833333333333335,320,1C342.22222222222223,3.0833333333333335,351.11111111111114,39.041666666666664,373.33333333333337,38C395.5555555555556,36.958333333333336,404.44444444444446,-2.3333333333333335,426.6666666666667,-4C448.8888888888889,-5.666666666666666,457.77777777777777,27.083333333333332,480,30C502.22222222222223,32.916666666666664,511.11111111111114,7.916666666666666,533.3333333333334,10C555.5555555555557,12.083333333333334,564.4444444444446,41.458333333333336,586.6666666666667,40C608.8888888888889,38.541666666666664,617.7777777777778,1.3333333333333335,640,3C662.2222222222222,4.666666666666666,671.1111111111111,45.5,693.3333333333334,48C715.5555555555557,50.5,724.4444444444446,12.916666666666666,746.6666666666667,15C768.8888888888889,17.083333333333332,788.8888888888889,49.041666666666664,800,58" transform="matrix(1,0,0,1,0,1302)"></path><path d="M10,10C19.02777777777778,10.833333333333334,33.19444444444444,19.625,53.333333333333336,14C73.47222222222223,8.375,84.44444444444446,-17.833333333333332,106.66666666666667,-17C128.88888888888889,-16.166666666666668,137.77777777777777,15.708333333333334,160,18C182.22222222222223,20.291666666666668,191.11111111111111,-8.083333333333334,213.33333333333334,-6C235.55555555555557,-3.9166666666666665,244.44444444444446,26.541666666666668,266.6666666666667,28C288.8888888888889,29.458333333333332,297.77777777777777,-1.0833333333333335,320,1C342.22222222222223,3.0833333333333335,351.11111111111114,39.041666666666664,373.33333333333337,38C395.5555555555556,36.958333333333336,404.44444444444446,-2.3333333333333335,426.6666666666667,-4C448.8888888888889,-5.666666666666666,457.77777777777777,27.083333333333332,480,30C502.22222222222223,32.916666666666664,511.11111111111114,7.916666666666666,533.3333333333334,10C555.5555555555557,12.083333333333334,564.4444444444446,41.458333333333336,586.6666666666667,40C608.8888888888889,38.541666666666664,617.7777777777778,1.3333333333333335,640,3C662.2222222222222,4.666666666666666,671.1111111111111,45.5,693.3333333333334,48C715.5555555555557,50.5,724.4444444444446,12.916666666666666,746.6666666666667,15C768.8888888888889,17.083333333333332,788.8888888888889,49.041666666666664,800,58" transform="matrix(1,0,0,1,0,1271)"></path><path d="M10,10C19.02777777777778,10.833333333333334,33.19444444444444,19.625,53.333333333333336,14C73.47222222222223,8.375,84.44444444444446,-17.833333333333332,106.66666666666667,-17C128.88888888888889,-16.166666666666668,137.77777777777777,15.708333333333334,160,18C182.22222222222223,20.291666666666668,191.11111111111111,-8.083333333333334,213.33333333333334,-6C235.55555555555557,-3.9166666666666665,244.44444444444446,26.541666666666668,266.6666666666667,28C288.8888888888889,29.458333333333332,297.77777777777777,-1.0833333333333335,320,1C342.22222222222223,3.0833333333333335,351.11111111111114,39.041666666666664,373.33333333333337,38C395.5555555555556,36.958333333333336,404.44444444444446,-2.3333333333333335,426.6666666666667,-4C448.8888888888889,-5.666666666666666,457.77777777777777,27.083333333333332,480,30C502.22222222222223,32.916666666666664,511.11111111111114,7.916666666666666,533.3333333333334,10C555.5555555555557,12.083333333333334,564.4444444444446,41.458333333333336,586.6666666666667,40C608.8888888888889,38.541666666666664,617.7777777777778,1.3333333333333335,640,3C662.2222222222222,4.666666666666666,671.1111111111111,45.5,693.3333333333334,48C715.5555555555557,50.5,724.4444444444446,12.916666666666666,746.6666666666667,15C768.8888888888889,17.083333333333332,788.8888888888889,49.041666666666664,800,58" transform="matrix(1,0,0,1,0,1240)"></path><path d="M10,10C19.02777777777778,10.833333333333334,33.19444444444444,19.625,53.333333333333336,14C73.47222222222223,8.375,84.44444444444446,-17.833333333333332,106.66666666666667,-17C128.88888888888889,-16.166666666666668,137.77777777777777,15.708333333333334,160,18C182.22222222222223,20.291666666666668,191.11111111111111,-8.083333333333334,213.33333333333334,-6C235.55555555555557,-3.9166666666666665,244.44444444444446,26.541666666666668,266.6666666666667,28C288.8888888888889,29.458333333333332,297.77777777777777,-1.0833333333333335,320,1C342.22222222222223,3.0833333333333335,351.11111111111114,39.041666666666664,373.33333333333337,38C395.5555555555556,36.958333333333336,404.44444444444446,-2.3333333333333335,426.6666666666667,-4C448.8888888888889,-5.666666666666666,457.77777777777777,27.083333333333332,480,30C502.22222222222223,32.916666666666664,511.11111111111114,7.916666666666666,533.3333333333334,10C555.5555555555557,12.083333333333334,564.4444444444446,41.458333333333336,586.6666666666667,40C608.8888888888889,38.541666666666664,617.7777777777778,1.3333333333333335,640,3C662.2222222222222,4.666666666666666,671.1111111111111,45.5,693.3333333333334,48C715.5555555555557,50.5,724.4444444444446,12.916666666666666,746.6666666666667,15C768.8888888888889,17.083333333333332,788.8888888888889,49.041666666666664,800,58" transform="matrix(1,0,0,1,0,1209)"></path><path d="M10,10C19.02777777777778,10.833333333333334,33.19444444444444,19.625,53.333333333333336,14C73.47222222222223,8.375,84.44444444444446,-17.833333333333332,106.66666666666667,-17C128.88888888888889,-16.166666666666668,137.77777777777777,15.708333333333334,160,18C182.22222222222223,20.291666666666668,191.11111111111111,-8.083333333333334,213.33333333333334,-6C235.55555555555557,-3.9166666666666665,244.44444444444446,26.541666666666668,266.6666666666667,28C288.8888888888889,29.458333333333332,297.77777777777777,-1.0833333333333335,320,1C342.22222222222223,3.0833333333333335,351.11111111111114,39.041666666666664,373.33333333333337,38C395.5555555555556,36.958333333333336,404.44444444444446,-2.3333333333333335,426.6666666666667,-4C448.8888888888889,-5.666666666666666,457.77777777777777,27.083333333333332,480,30C502.22222222222223,32.916666666666664,511.11111111111114,7.916666666666666,533.3333333333334,10C555.5555555555557,12.083333333333334,564.4444444444446,41.458333333333336,586.6666666666667,40C608.8888888888889,38.541666666666664,617.7777777777778,1.3333333333333335,640,3C662.2222222222222,4.666666666666666,671.1111111111111,45.5,693.3333333333334,48C715.5555555555557,50.5,724.4444444444446,12.916666666666666,746.6666666666667,15C768.8888888888889,17.083333333333332,788.8888888888889,49.041666666666664,800,58" transform="matrix(1,0,0,1,0,1178)"></path><path d="M10,10C19.02777777777778,10.833333333333334,33.19444444444444,19.625,53.333333333333336,14C73.47222222222223,8.375,84.44444444444446,-17.833333333333332,106.66666666666667,-17C128.88888888888889,-16.166666666666668,137.77777777777777,15.708333333333334,160,18C182.22222222222223,20.291666666666668,191.11111111111111,-8.083333333333334,213.33333333333334,-6C235.55555555555557,-3.9166666666666665,244.44444444444446,26.541666666666668,266.6666666666667,28C288.8888888888889,29.458333333333332,297.77777777777777,-1.0833333333333335,320,1C342.22222222222223,3.0833333333333335,351.11111111111114,39.041666666666664,373.33333333333337,38C395.5555555555556,36.958333333333336,404.44444444444446,-2.3333333333333335,426.6666666666667,-4C448.8888888888889,-5.666666666666666,457.77777777777777,27.083333333333332,480,30C502.22222222222223,32.916666666666664,511.11111111111114,7.916666666666666,533.3333333333334,10C555.5555555555557,12.083333333333334,564.4444444444446,41.458333333333336,586.6666666666667,40C608.8888888888889,38.541666666666664,617.7777777777778,1.3333333333333335,640,3C662.2222222222222,4.666666666666666,671.1111111111111,45.5,693.3333333333334,48C715.5555555555557,50.5,724.4444444444446,12.916666666666666,746.6666666666667,15C768.8888888888889,17.083333333333332,788.8888888888889,49.041666666666664,800,58" transform="matrix(1,0,0,1,0,1147)"></path><path d="M10,10C19.02777777777778,10.833333333333334,33.19444444444444,19.625,53.333333333333336,14C73.47222222222223,8.375,84.44444444444446,-17.833333333333332,106.66666666666667,-17C128.88888888888889,-16.166666666666668,137.77777777777777,15.708333333333334,160,18C182.22222222222223,20.291666666666668,191.11111111111111,-8.083333333333334,213.33333333333334,-6C235.55555555555557,-3.9166666666666665,244.44444444444446,26.541666666666668,266.6666666666667,28C288.8888888888889,29.458333333333332,297.77777777777777,-1.0833333333333335,320,1C342.22222222222223,3.0833333333333335,351.11111111111114,39.041666666666664,373.33333333333337,38C395.5555555555556,36.958333333333336,404.44444444444446,-2.3333333333333335,426.6666666666667,-4C448.8888888888889,-5.666666666666666,457.77777777777777,27.083333333333332,480,30C502.22222222222223,32.916666666666664,511.11111111111114,7.916666666666666,533.3333333333334,10C555.5555555555557,12.083333333333334,564.4444444444446,41.458333333333336,586.6666666666667,40C608.8888888888889,38.541666666666664,617.7777777777778,1.3333333333333335,640,3C662.2222222222222,4.666666666666666,671.1111111111111,45.5,693.3333333333334,48C715.5555555555557,50.5,724.4444444444446,12.916666666666666,746.6666666666667,15C768.8888888888889,17.083333333333332,788.8888888888889,49.041666666666664,800,58" transform="matrix(1,0,0,1,0,1116)"></path><path d="M10,10C19.02777777777778,10.833333333333334,33.19444444444444,19.625,53.333333333333336,14C73.47222222222223,8.375,84.44444444444446,-17.833333333333332,106.66666666666667,-17C128.88888888888889,-16.166666666666668,137.77777777777777,15.708333333333334,160,18C182.22222222222223,20.291666666666668,191.11111111111111,-8.083333333333334,213.33333333333334,-6C235.55555555555557,-3.9166666666666665,244.44444444444446,26.541666666666668,266.6666666666667,28C288.8888888888889,29.458333333333332,297.77777777777777,-1.0833333333333335,320,1C342.22222222222223,3.0833333333333335,351.11111111111114,39.041666666666664,373.33333333333337,38C395.5555555555556,36.958333333333336,404.44444444444446,-2.3333333333333335,426.6666666666667,-4C448.8888888888889,-5.666666666666666,457.77777777777777,27.083333333333332,480,30C502.22222222222223,32.916666666666664,511.11111111111114,7.916666666666666,533.3333333333334,10C555.5555555555557,12.083333333333334,564.4444444444446,41.458333333333336,586.6666666666667,40C608.8888888888889,38.541666666666664,617.7777777777778,1.3333333333333335,640,3C662.2222222222222,4.666666666666666,671.1111111111111,45.5,693.3333333333334,48C715.5555555555557,50.5,724.4444444444446,12.916666666666666,746.6666666666667,15C768.8888888888889,17.083333333333332,788.8888888888889,49.041666666666664,800,58" transform="matrix(1,0,0,1,0,1085)"></path><path d="M10,10C19.02777777777778,10.833333333333334,33.19444444444444,19.625,53.333333333333336,14C73.47222222222223,8.375,84.44444444444446,-17.833333333333332,106.66666666666667,-17C128.88888888888889,-16.166666666666668,137.77777777777777,15.708333333333334,160,18C182.22222222222223,20.291666666666668,191.11111111111111,-8.083333333333334,213.33333333333334,-6C235.55555555555557,-3.9166666666666665,244.44444444444446,26.541666666666668,266.6666666666667,28C288.8888888888889,29.458333333333332,297.77777777777777,-1.0833333333333335,320,1C342.22222222222223,3.0833333333333335,351.11111111111114,39.041666666666664,373.33333333333337,38C395.5555555555556,36.958333333333336,404.44444444444446,-2.3333333333333335,426.6666666666667,-4C448.8888888888889,-5.666666666666666,457.77777777777777,27.083333333333332,480,30C502.22222222222223,32.916666666666664,511.11111111111114,7.916666666666666,533.3333333333334,10C555.5555555555557,12.083333333333334,564.4444444444446,41.458333333333336,586.6666666666667,40C608.8888888888889,38.541666666666664,617.7777777777778,1.3333333333333335,640,3C662.2222222222222,4.666666666666666,671.1111111111111,45.5,693.3333333333334,48C715.5555555555557,50.5,724.4444444444446,12.916666666666666,746.6666666666667,15C768.8888888888889,17.083333333333332,788.8888888888889,49.041666666666664,800,58" transform="matrix(1,0,0,1,0,1054)"></path><path d="M10,10C19.02777777777778,10.833333333333334,33.19444444444444,19.625,53.333333333333336,14C73.47222222222223,8.375,84.44444444444446,-17.833333333333332,106.66666666666667,-17C128.88888888888889,-16.166666666666668,137.77777777777777,15.708333333333334,160,18C182.22222222222223,20.291666666666668,191.11111111111111,-8.083333333333334,213.33333333333334,-6C235.55555555555557,-3.9166666666666665,244.44444444444446,26.541666666666668,266.6666666666667,28C288.8888888888889,29.458333333333332,297.77777777777777,-1.0833333333333335,320,1C342.22222222222223,3.0833333333333335,351.11111111111114,39.041666666666664,373.33333333333337,38C395.5555555555556,36.958333333333336,404.44444444444446,-2.3333333333333335,426.6666666666667,-4C448.8888888888889,-5.666666666666666,457.77777777777777,27.083333333333332,480,30C502.22222222222223,32.916666666666664,511.11111111111114,7.916666666666666,533.3333333333334,10C555.5555555555557,12.083333333333334,564.4444444444446,41.458333333333336,586.6666666666667,40C608.8888888888889,38.541666666666664,617.7777777777778,1.3333333333333335,640,3C662.2222222222222,4.666666666666666,671.1111111111111,45.5,693.3333333333334,48C715.5555555555557,50.5,724.4444444444446,12.916666666666666,746.6666666666667,15C768.8888888888889,17.083333333333332,788.8888888888889,49.041666666666664,800,58" transform="matrix(1,0,0,1,0,1023)"></path><path d="M10,10C19.02777777777778,10.833333333333334,33.19444444444444,19.625,53.333333333333336,14C73.47222222222223,8.375,84.44444444444446,-17.833333333333332,106.66666666666667,-17C128.88888888888889,-16.166666666666668,137.77777777777777,15.708333333333334,160,18C182.22222222222223,20.291666666666668,191.11111111111111,-8.083333333333334,213.33333333333334,-6C235.55555555555557,-3.9166666666666665,244.44444444444446,26.541666666666668,266.6666666666667,28C288.8888888888889,29.458333333333332,297.77777777777777,-1.0833333333333335,320,1C342.22222222222223,3.0833333333333335,351.11111111111114,39.041666666666664,373.33333333333337,38C395.5555555555556,36.958333333333336,404.44444444444446,-2.3333333333333335,426.6666666666667,-4C448.8888888888889,-5.666666666666666,457.77777777777777,27.083333333333332,480,30C502.22222222222223,32.916666666666664,511.11111111111114,7.916666666666666,533.3333333333334,10C555.5555555555557,12.083333333333334,564.4444444444446,41.458333333333336,586.6666666666667,40C608.8888888888889,38.541666666666664,617.7777777777778,1.3333333333333335,640,3C662.2222222222222,4.666666666666666,671.1111111111111,45.5,693.3333333333334,48C715.5555555555557,50.5,724.4444444444446,12.916666666666666,746.6666666666667,15C768.8888888888889,17.083333333333332,788.8888888888889,49.041666666666664,800,58" transform="matrix(1,0,0,1,0,992)"></path><path d="M10,10C19.02777777777778,10.833333333333334,33.19444444444444,19.625,53.333333333333336,14C73.47222222222223,8.375,84.44444444444446,-17.833333333333332,106.66666666666667,-17C128.88888888888889,-16.166666666666668,137.77777777777777,15.708333333333334,160,18C182.22222222222223,20.291666666666668,191.11111111111111,-8.083333333333334,213.33333333333334,-6C235.55555555555557,-3.9166666666666665,244.44444444444446,26.541666666666668,266.6666666666667,28C288.8888888888889,29.458333333333332,297.77777777777777,-1.0833333333333335,320,1C342.22222222222223,3.0833333333333335,351.11111111111114,39.041666666666664,373.33333333333337,38C395.5555555555556,36.958333333333336,404.44444444444446,-2.3333333333333335,426.6666666666667,-4C448.8888888888889,-5.666666666666666,457.77777777777777,27.083333333333332,480,30C502.22222222222223,32.916666666666664,511.11111111111114,7.916666666666666,533.3333333333334,10C555.5555555555557,12.083333333333334,564.4444444444446,41.458333333333336,586.6666666666667,40C608.8888888888889,38.541666666666664,617.7777777777778,1.3333333333333335,640,3C662.2222222222222,4.666666666666666,671.1111111111111,45.5,693.3333333333334,48C715.5555555555557,50.5,724.4444444444446,12.916666666666666,746.6666666666667,15C768.8888888888889,17.083333333333332,788.8888888888889,49.041666666666664,800,58" transform="matrix(1,0,0,1,0,961)"></path><path d="M10,10C19.02777777777778,10.833333333333334,33.19444444444444,19.625,53.333333333333336,14C73.47222222222223,8.375,84.44444444444446,-17.833333333333332,106.66666666666667,-17C128.88888888888889,-16.166666666666668,137.77777777777777,15.708333333333334,160,18C182.22222222222223,20.291666666666668,191.11111111111111,-8.083333333333334,213.33333333333334,-6C235.55555555555557,-3.9166666666666665,244.44444444444446,26.541666666666668,266.6666666666667,28C288.8888888888889,29.458333333333332,297.77777777777777,-1.0833333333333335,320,1C342.22222222222223,3.0833333333333335,351.11111111111114,39.041666666666664,373.33333333333337,38C395.5555555555556,36.958333333333336,404.44444444444446,-2.3333333333333335,426.6666666666667,-4C448.8888888888889,-5.666666666666666,457.77777777777777,27.083333333333332,480,30C502.22222222222223,32.916666666666664,511.11111111111114,7.916666666666666,533.3333333333334,10C555.5555555555557,12.083333333333334,564.4444444444446,41.458333333333336,586.6666666666667,40C608.8888888888889,38.541666666666664,617.7777777777778,1.3333333333333335,640,3C662.2222222222222,4.666666666666666,671.1111111111111,45.5,693.3333333333334,48C715.5555555555557,50.5,724.4444444444446,12.916666666666666,746.6666666666667,15C768.8888888888889,17.083333333333332,788.8888888888889,49.041666666666664,800,58" transform="matrix(1,0,0,1,0,930)"></path><path d="M10,10C19.02777777777778,10.833333333333334,33.19444444444444,19.625,53.333333333333336,14C73.47222222222223,8.375,84.44444444444446,-17.833333333333332,106.66666666666667,-17C128.88888888888889,-16.166666666666668,137.77777777777777,15.708333333333334,160,18C182.22222222222223,20.291666666666668,191.11111111111111,-8.083333333333334,213.33333333333334,-6C235.55555555555557,-3.9166666666666665,244.44444444444446,26.541666666666668,266.6666666666667,28C288.8888888888889,29.458333333333332,297.77777777777777,-1.0833333333333335,320,1C342.22222222222223,3.0833333333333335,351.11111111111114,39.041666666666664,373.33333333333337,38C395.5555555555556,36.958333333333336,404.44444444444446,-2.3333333333333335,426.6666666666667,-4C448.8888888888889,-5.666666666666666,457.77777777777777,27.083333333333332,480,30C502.22222222222223,32.916666666666664,511.11111111111114,7.916666666666666,533.3333333333334,10C555.5555555555557,12.083333333333334,564.4444444444446,41.458333333333336,586.6666666666667,40C608.8888888888889,38.541666666666664,617.7777777777778,1.3333333333333335,640,3C662.2222222222222,4.666666666666666,671.1111111111111,45.5,693.3333333333334,48C715.5555555555557,50.5,724.4444444444446,12.916666666666666,746.6666666666667,15C768.8888888888889,17.083333333333332,788.8888888888889,49.041666666666664,800,58" transform="matrix(1,0,0,1,0,899)"></path><path d="M10,10C19.02777777777778,10.833333333333334,33.19444444444444,19.625,53.333333333333336,14C73.47222222222223,8.375,84.44444444444446,-17.833333333333332,106.66666666666667,-17C128.88888888888889,-16.166666666666668,137.77777777777777,15.708333333333334,160,18C182.22222222222223,20.291666666666668,191.11111111111111,-8.083333333333334,213.33333333333334,-6C235.55555555555557,-3.9166666666666665,244.44444444444446,26.541666666666668,266.6666666666667,28C288.8888888888889,29.458333333333332,297.77777777777777,-1.0833333333333335,320,1C342.22222222222223,3.0833333333333335,351.11111111111114,39.041666666666664,373.33333333333337,38C395.5555555555556,36.958333333333336,404.44444444444446,-2.3333333333333335,426.6666666666667,-4C448.8888888888889,-5.666666666666666,457.77777777777777,27.083333333333332,480,30C502.22222222222223,32.916666666666664,511.11111111111114,7.916666666666666,533.3333333333334,10C555.5555555555557,12.083333333333334,564.4444444444446,41.458333333333336,586.6666666666667,40C608.8888888888889,38.541666666666664,617.7777777777778,1.3333333333333335,640,3C662.2222222222222,4.666666666666666,671.1111111111111,45.5,693.3333333333334,48C715.5555555555557,50.5,724.4444444444446,12.916666666666666,746.6666666666667,15C768.8888888888889,17.083333333333332,788.8888888888889,49.041666666666664,800,58" transform="matrix(1,0,0,1,0,868)"></path><path d="M10,10C19.02777777777778,10.833333333333334,33.19444444444444,19.625,53.333333333333336,14C73.47222222222223,8.375,84.44444444444446,-17.833333333333332,106.66666666666667,-17C128.88888888888889,-16.166666666666668,137.77777777777777,15.708333333333334,160,18C182.22222222222223,20.291666666666668,191.11111111111111,-8.083333333333334,213.33333333333334,-6C235.55555555555557,-3.9166666666666665,244.44444444444446,26.541666666666668,266.6666666666667,28C288.8888888888889,29.458333333333332,297.77777777777777,-1.0833333333333335,320,1C342.22222222222223,3.0833333333333335,351.11111111111114,39.041666666666664,373.33333333333337,38C395.5555555555556,36.958333333333336,404.44444444444446,-2.3333333333333335,426.6666666666667,-4C448.8888888888889,-5.666666666666666,457.77777777777777,27.083333333333332,480,30C502.22222222222223,32.916666666666664,511.11111111111114,7.916666666666666,533.3333333333334,10C555.5555555555557,12.083333333333334,564.4444444444446,41.458333333333336,586.6666666666667,40C608.8888888888889,38.541666666666664,617.7777777777778,1.3333333333333335,640,3C662.2222222222222,4.666666666666666,671.1111111111111,45.5,693.3333333333334,48C715.5555555555557,50.5,724.4444444444446,12.916666666666666,746.6666666666667,15C768.8888888888889,17.083333333333332,788.8888888888889,49.041666666666664,800,58" transform="matrix(1,0,0,1,0,837)"></path><path d="M10,10C19.02777777777778,10.833333333333334,33.19444444444444,19.625,53.333333333333336,14C73.47222222222223,8.375,84.44444444444446,-17.833333333333332,106.66666666666667,-17C128.88888888888889,-16.166666666666668,137.77777777777777,15.708333333333334,160,18C182.22222222222223,20.291666666666668,191.11111111111111,-8.083333333333334,213.33333333333334,-6C235.55555555555557,-3.9166666666666665,244.44444444444446,26.541666666666668,266.6666666666667,28C288.8888888888889,29.458333333333332,297.77777777777777,-1.0833333333333335,320,1C342.22222222222223,3.0833333333333335,351.11111111111114,39.041666666666664,373.33333333333337,38C395.5555555555556,36.958333333333336,404.44444444444446,-2.3333333333333335,426.6666666666667,-4C448.8888888888889,-5.666666666666666,457.77777777777777,27.083333333333332,480,30C502.22222222222223,32.916666666666664,511.11111111111114,7.916666666666666,533.3333333333334,10C555.5555555555557,12.083333333333334,564.4444444444446,41.458333333333336,586.6666666666667,40C608.8888888888889,38.541666666666664,617.7777777777778,1.3333333333333335,640,3C662.2222222222222,4.666666666666666,671.1111111111111,45.5,693.3333333333334,48C715.5555555555557,50.5,724.4444444444446,12.916666666666666,746.6666666666667,15C768.8888888888889,17.083333333333332,788.8888888888889,49.041666666666664,800,58" transform="matrix(1,0,0,1,0,806)"></path><path d="M10,10C19.02777777777778,10.833333333333334,33.19444444444444,19.625,53.333333333333336,14C73.47222222222223,8.375,84.44444444444446,-17.833333333333332,106.66666666666667,-17C128.88888888888889,-16.166666666666668,137.77777777777777,15.708333333333334,160,18C182.22222222222223,20.291666666666668,191.11111111111111,-8.083333333333334,213.33333333333334,-6C235.55555555555557,-3.9166666666666665,244.44444444444446,26.541666666666668,266.6666666666667,28C288.8888888888889,29.458333333333332,297.77777777777777,-1.0833333333333335,320,1C342.22222222222223,3.0833333333333335,351.11111111111114,39.041666666666664,373.33333333333337,38C395.5555555555556,36.958333333333336,404.44444444444446,-2.3333333333333335,426.6666666666667,-4C448.8888888888889,-5.666666666666666,457.77777777777777,27.083333333333332,480,30C502.22222222222223,32.916666666666664,511.11111111111114,7.916666666666666,533.3333333333334,10C555.5555555555557,12.083333333333334,564.4444444444446,41.458333333333336,586.6666666666667,40C608.8888888888889,38.541666666666664,617.7777777777778,1.3333333333333335,640,3C662.2222222222222,4.666666666666666,671.1111111111111,45.5,693.3333333333334,48C715.5555555555557,50.5,724.4444444444446,12.916666666666666,746.6666666666667,15C768.8888888888889,17.083333333333332,788.8888888888889,49.041666666666664,800,58" transform="matrix(1,0,0,1,0,775)"></path><path d="M10,10C19.02777777777778,10.833333333333334,33.19444444444444,19.625,53.333333333333336,14C73.47222222222223,8.375,84.44444444444446,-17.833333333333332,106.66666666666667,-17C128.88888888888889,-16.166666666666668,137.77777777777777,15.708333333333334,160,18C182.22222222222223,20.291666666666668,191.11111111111111,-8.083333333333334,213.33333333333334,-6C235.55555555555557,-3.9166666666666665,244.44444444444446,26.541666666666668,266.6666666666667,28C288.8888888888889,29.458333333333332,297.77777777777777,-1.0833333333333335,320,1C342.22222222222223,3.0833333333333335,351.11111111111114,39.041666666666664,373.33333333333337,38C395.5555555555556,36.958333333333336,404.44444444444446,-2.3333333333333335,426.6666666666667,-4C448.8888888888889,-5.666666666666666,457.77777777777777,27.083333333333332,480,30C502.22222222222223,32.916666666666664,511.11111111111114,7.916666666666666,533.3333333333334,10C555.5555555555557,12.083333333333334,564.4444444444446,41.458333333333336,586.6666666666667,40C608.8888888888889,38.541666666666664,617.7777777777778,1.3333333333333335,640,3C662.2222222222222,4.666666666666666,671.1111111111111,45.5,693.3333333333334,48C715.5555555555557,50.5,724.4444444444446,12.916666666666666,746.6666666666667,15C768.8888888888889,17.083333333333332,788.8888888888889,49.041666666666664,800,58" transform="matrix(1,0,0,1,0,744)"></path><path d="M10,10C19.02777777777778,10.833333333333334,33.19444444444444,19.625,53.333333333333336,14C73.47222222222223,8.375,84.44444444444446,-17.833333333333332,106.66666666666667,-17C128.88888888888889,-16.166666666666668,137.77777777777777,15.708333333333334,160,18C182.22222222222223,20.291666666666668,191.11111111111111,-8.083333333333334,213.33333333333334,-6C235.55555555555557,-3.9166666666666665,244.44444444444446,26.541666666666668,266.6666666666667,28C288.8888888888889,29.458333333333332,297.77777777777777,-1.0833333333333335,320,1C342.22222222222223,3.0833333333333335,351.11111111111114,39.041666666666664,373.33333333333337,38C395.5555555555556,36.958333333333336,404.44444444444446,-2.3333333333333335,426.6666666666667,-4C448.8888888888889,-5.666666666666666,457.77777777777777,27.083333333333332,480,30C502.22222222222223,32.916666666666664,511.11111111111114,7.916666666666666,533.3333333333334,10C555.5555555555557,12.083333333333334,564.4444444444446,41.458333333333336,586.6666666666667,40C608.8888888888889,38.541666666666664,617.7777777777778,1.3333333333333335,640,3C662.2222222222222,4.666666666666666,671.1111111111111,45.5,693.3333333333334,48C715.5555555555557,50.5,724.4444444444446,12.916666666666666,746.6666666666667,15C768.8888888888889,17.083333333333332,788.8888888888889,49.041666666666664,800,58" transform="matrix(1,0,0,1,0,713)"></path><path d="M10,10C19.02777777777778,10.833333333333334,33.19444444444444,19.625,53.333333333333336,14C73.47222222222223,8.375,84.44444444444446,-17.833333333333332,106.66666666666667,-17C128.88888888888889,-16.166666666666668,137.77777777777777,15.708333333333334,160,18C182.22222222222223,20.291666666666668,191.11111111111111,-8.083333333333334,213.33333333333334,-6C235.55555555555557,-3.9166666666666665,244.44444444444446,26.541666666666668,266.6666666666667,28C288.8888888888889,29.458333333333332,297.77777777777777,-1.0833333333333335,320,1C342.22222222222223,3.0833333333333335,351.11111111111114,39.041666666666664,373.33333333333337,38C395.5555555555556,36.958333333333336,404.44444444444446,-2.3333333333333335,426.6666666666667,-4C448.8888888888889,-5.666666666666666,457.77777777777777,27.083333333333332,480,30C502.22222222222223,32.916666666666664,511.11111111111114,7.916666666666666,533.3333333333334,10C555.5555555555557,12.083333333333334,564.4444444444446,41.458333333333336,586.6666666666667,40C608.8888888888889,38.541666666666664,617.7777777777778,1.3333333333333335,640,3C662.2222222222222,4.666666666666666,671.1111111111111,45.5,693.3333333333334,48C715.5555555555557,50.5,724.4444444444446,12.916666666666666,746.6666666666667,15C768.8888888888889,17.083333333333332,788.8888888888889,49.041666666666664,800,58" transform="matrix(1,0,0,1,0,682)"></path><path d="M10,10C19.02777777777778,10.833333333333334,33.19444444444444,19.625,53.333333333333336,14C73.47222222222223,8.375,84.44444444444446,-17.833333333333332,106.66666666666667,-17C128.88888888888889,-16.166666666666668,137.77777777777777,15.708333333333334,160,18C182.22222222222223,20.291666666666668,191.11111111111111,-8.083333333333334,213.33333333333334,-6C235.55555555555557,-3.9166666666666665,244.44444444444446,26.541666666666668,266.6666666666667,28C288.8888888888889,29.458333333333332,297.77777777777777,-1.0833333333333335,320,1C342.22222222222223,3.0833333333333335,351.11111111111114,39.041666666666664,373.33333333333337,38C395.5555555555556,36.958333333333336,404.44444444444446,-2.3333333333333335,426.6666666666667,-4C448.8888888888889,-5.666666666666666,457.77777777777777,27.083333333333332,480,30C502.22222222222223,32.916666666666664,511.11111111111114,7.916666666666666,533.3333333333334,10C555.5555555555557,12.083333333333334,564.4444444444446,41.458333333333336,586.6666666666667,40C608.8888888888889,38.541666666666664,617.7777777777778,1.3333333333333335,640,3C662.2222222222222,4.666666666666666,671.1111111111111,45.5,693.3333333333334,48C715.5555555555557,50.5,724.4444444444446,12.916666666666666,746.6666666666667,15C768.8888888888889,17.083333333333332,788.8888888888889,49.041666666666664,800,58" transform="matrix(1,0,0,1,0,651)"></path><path d="M10,10C19.02777777777778,10.833333333333334,33.19444444444444,19.625,53.333333333333336,14C73.47222222222223,8.375,84.44444444444446,-17.833333333333332,106.66666666666667,-17C128.88888888888889,-16.166666666666668,137.77777777777777,15.708333333333334,160,18C182.22222222222223,20.291666666666668,191.11111111111111,-8.083333333333334,213.33333333333334,-6C235.55555555555557,-3.9166666666666665,244.44444444444446,26.541666666666668,266.6666666666667,28C288.8888888888889,29.458333333333332,297.77777777777777,-1.0833333333333335,320,1C342.22222222222223,3.0833333333333335,351.11111111111114,39.041666666666664,373.33333333333337,38C395.5555555555556,36.958333333333336,404.44444444444446,-2.3333333333333335,426.6666666666667,-4C448.8888888888889,-5.666666666666666,457.77777777777777,27.083333333333332,480,30C502.22222222222223,32.916666666666664,511.11111111111114,7.916666666666666,533.3333333333334,10C555.5555555555557,12.083333333333334,564.4444444444446,41.458333333333336,586.6666666666667,40C608.8888888888889,38.541666666666664,617.7777777777778,1.3333333333333335,640,3C662.2222222222222,4.666666666666666,671.1111111111111,45.5,693.3333333333334,48C715.5555555555557,50.5,724.4444444444446,12.916666666666666,746.6666666666667,15C768.8888888888889,17.083333333333332,788.8888888888889,49.041666666666664,800,58" transform="matrix(1,0,0,1,0,620)"></path><path d="M10,10C19.02777777777778,10.833333333333334,33.19444444444444,19.625,53.333333333333336,14C73.47222222222223,8.375,84.44444444444446,-17.833333333333332,106.66666666666667,-17C128.88888888888889,-16.166666666666668,137.77777777777777,15.708333333333334,160,18C182.22222222222223,20.291666666666668,191.11111111111111,-8.083333333333334,213.33333333333334,-6C235.55555555555557,-3.9166666666666665,244.44444444444446,26.541666666666668,266.6666666666667,28C288.8888888888889,29.458333333333332,297.77777777777777,-1.0833333333333335,320,1C342.22222222222223,3.0833333333333335,351.11111111111114,39.041666666666664,373.33333333333337,38C395.5555555555556,36.958333333333336,404.44444444444446,-2.3333333333333335,426.6666666666667,-4C448.8888888888889,-5.666666666666666,457.77777777777777,27.083333333333332,480,30C502.22222222222223,32.916666666666664,511.11111111111114,7.916666666666666,533.3333333333334,10C555.5555555555557,12.083333333333334,564.4444444444446,41.458333333333336,586.6666666666667,40C608.8888888888889,38.541666666666664,617.7777777777778,1.3333333333333335,640,3C662.2222222222222,4.666666666666666,671.1111111111111,45.5,693.3333333333334,48C715.5555555555557,50.5,724.4444444444446,12.916666666666666,746.6666666666667,15C768.8888888888889,17.083333333333332,788.8888888888889,49.041666666666664,800,58" transform="matrix(1,0,0,1,0,589)"></path><path d="M10,10C19.02777777777778,10.833333333333334,33.19444444444444,19.625,53.333333333333336,14C73.47222222222223,8.375,84.44444444444446,-17.833333333333332,106.66666666666667,-17C128.88888888888889,-16.166666666666668,137.77777777777777,15.708333333333334,160,18C182.22222222222223,20.291666666666668,191.11111111111111,-8.083333333333334,213.33333333333334,-6C235.55555555555557,-3.9166666666666665,244.44444444444446,26.541666666666668,266.6666666666667,28C288.8888888888889,29.458333333333332,297.77777777777777,-1.0833333333333335,320,1C342.22222222222223,3.0833333333333335,351.11111111111114,39.041666666666664,373.33333333333337,38C395.5555555555556,36.958333333333336,404.44444444444446,-2.3333333333333335,426.6666666666667,-4C448.8888888888889,-5.666666666666666,457.77777777777777,27.083333333333332,480,30C502.22222222222223,32.916666666666664,511.11111111111114,7.916666666666666,533.3333333333334,10C555.5555555555557,12.083333333333334,564.4444444444446,41.458333333333336,586.6666666666667,40C608.8888888888889,38.541666666666664,617.7777777777778,1.3333333333333335,640,3C662.2222222222222,4.666666666666666,671.1111111111111,45.5,693.3333333333334,48C715.5555555555557,50.5,724.4444444444446,12.916666666666666,746.6666666666667,15C768.8888888888889,17.083333333333332,788.8888888888889,49.041666666666664,800,58" transform="matrix(1,0,0,1,0,558)"></path><path d="M10,10C19.02777777777778,10.833333333333334,33.19444444444444,19.625,53.333333333333336,14C73.47222222222223,8.375,84.44444444444446,-17.833333333333332,106.66666666666667,-17C128.88888888888889,-16.166666666666668,137.77777777777777,15.708333333333334,160,18C182.22222222222223,20.291666666666668,191.11111111111111,-8.083333333333334,213.33333333333334,-6C235.55555555555557,-3.9166666666666665,244.44444444444446,26.541666666666668,266.6666666666667,28C288.8888888888889,29.458333333333332,297.77777777777777,-1.0833333333333335,320,1C342.22222222222223,3.0833333333333335,351.11111111111114,39.041666666666664,373.33333333333337,38C395.5555555555556,36.958333333333336,404.44444444444446,-2.3333333333333335,426.6666666666667,-4C448.8888888888889,-5.666666666666666,457.77777777777777,27.083333333333332,480,30C502.22222222222223,32.916666666666664,511.11111111111114,7.916666666666666,533.3333333333334,10C555.5555555555557,12.083333333333334,564.4444444444446,41.458333333333336,586.6666666666667,40C608.8888888888889,38.541666666666664,617.7777777777778,1.3333333333333335,640,3C662.2222222222222,4.666666666666666,671.1111111111111,45.5,693.3333333333334,48C715.5555555555557,50.5,724.4444444444446,12.916666666666666,746.6666666666667,15C768.8888888888889,17.083333333333332,788.8888888888889,49.041666666666664,800,58" transform="matrix(1,0,0,1,0,527)"></path><path d="M10,10C19.02777777777778,10.833333333333334,33.19444444444444,19.625,53.333333333333336,14C73.47222222222223,8.375,84.44444444444446,-17.833333333333332,106.66666666666667,-17C128.88888888888889,-16.166666666666668,137.77777777777777,15.708333333333334,160,18C182.22222222222223,20.291666666666668,191.11111111111111,-8.083333333333334,213.33333333333334,-6C235.55555555555557,-3.9166666666666665,244.44444444444446,26.541666666666668,266.6666666666667,28C288.8888888888889,29.458333333333332,297.77777777777777,-1.0833333333333335,320,1C342.22222222222223,3.0833333333333335,351.11111111111114,39.041666666666664,373.33333333333337,38C395.5555555555556,36.958333333333336,404.44444444444446,-2.3333333333333335,426.6666666666667,-4C448.8888888888889,-5.666666666666666,457.77777777777777,27.083333333333332,480,30C502.22222222222223,32.916666666666664,511.11111111111114,7.916666666666666,533.3333333333334,10C555.5555555555557,12.083333333333334,564.4444444444446,41.458333333333336,586.6666666666667,40C608.8888888888889,38.541666666666664,617.7777777777778,1.3333333333333335,640,3C662.2222222222222,4.666666666666666,671.1111111111111,45.5,693.3333333333334,48C715.5555555555557,50.5,724.4444444444446,12.916666666666666,746.6666666666667,15C768.8888888888889,17.083333333333332,788.8888888888889,49.041666666666664,800,58" transform="matrix(1,0,0,1,0,496)"></path><path d="M10,10C19.02777777777778,10.833333333333334,33.19444444444444,19.625,53.333333333333336,14C73.47222222222223,8.375,84.44444444444446,-17.833333333333332,106.66666666666667,-17C128.88888888888889,-16.166666666666668,137.77777777777777,15.708333333333334,160,18C182.22222222222223,20.291666666666668,191.11111111111111,-8.083333333333334,213.33333333333334,-6C235.55555555555557,-3.9166666666666665,244.44444444444446,26.541666666666668,266.6666666666667,28C288.8888888888889,29.458333333333332,297.77777777777777,-1.0833333333333335,320,1C342.22222222222223,3.0833333333333335,351.11111111111114,39.041666666666664,373.33333333333337,38C395.5555555555556,36.958333333333336,404.44444444444446,-2.3333333333333335,426.6666666666667,-4C448.8888888888889,-5.666666666666666,457.77777777777777,27.083333333333332,480,30C502.22222222222223,32.916666666666664,511.11111111111114,7.916666666666666,533.3333333333334,10C555.5555555555557,12.083333333333334,564.4444444444446,41.458333333333336,586.6666666666667,40C608.8888888888889,38.541666666666664,617.7777777777778,1.3333333333333335,640,3C662.2222222222222,4.666666666666666,671.1111111111111,45.5,693.3333333333334,48C715.5555555555557,50.5,724.4444444444446,12.916666666666666,746.6666666666667,15C768.8888888888889,17.083333333333332,788.8888888888889,49.041666666666664,800,58" transform="matrix(1,0,0,1,0,465)"></path><path d="M10,10C19.02777777777778,10.833333333333334,33.19444444444444,19.625,53.333333333333336,14C73.47222222222223,8.375,84.44444444444446,-17.833333333333332,106.66666666666667,-17C128.88888888888889,-16.166666666666668,137.77777777777777,15.708333333333334,160,18C182.22222222222223,20.291666666666668,191.11111111111111,-8.083333333333334,213.33333333333334,-6C235.55555555555557,-3.9166666666666665,244.44444444444446,26.541666666666668,266.6666666666667,28C288.8888888888889,29.458333333333332,297.77777777777777,-1.0833333333333335,320,1C342.22222222222223,3.0833333333333335,351.11111111111114,39.041666666666664,373.33333333333337,38C395.5555555555556,36.958333333333336,404.44444444444446,-2.3333333333333335,426.6666666666667,-4C448.8888888888889,-5.666666666666666,457.77777777777777,27.083333333333332,480,30C502.22222222222223,32.916666666666664,511.11111111111114,7.916666666666666,533.3333333333334,10C555.5555555555557,12.083333333333334,564.4444444444446,41.458333333333336,586.6666666666667,40C608.8888888888889,38.541666666666664,617.7777777777778,1.3333333333333335,640,3C662.2222222222222,4.666666666666666,671.1111111111111,45.5,693.3333333333334,48C715.5555555555557,50.5,724.4444444444446,12.916666666666666,746.6666666666667,15C768.8888888888889,17.083333333333332,788.8888888888889,49.041666666666664,800,58" transform="matrix(1,0,0,1,0,434)"></path><path d="M10,10C19.02777777777778,10.833333333333334,33.19444444444444,19.625,53.333333333333336,14C73.47222222222223,8.375,84.44444444444446,-17.833333333333332,106.66666666666667,-17C128.88888888888889,-16.166666666666668,137.77777777777777,15.708333333333334,160,18C182.22222222222223,20.291666666666668,191.11111111111111,-8.083333333333334,213.33333333333334,-6C235.55555555555557,-3.9166666666666665,244.44444444444446,26.541666666666668,266.6666666666667,28C288.8888888888889,29.458333333333332,297.77777777777777,-1.0833333333333335,320,1C342.22222222222223,3.0833333333333335,351.11111111111114,39.041666666666664,373.33333333333337,38C395.5555555555556,36.958333333333336,404.44444444444446,-2.3333333333333335,426.6666666666667,-4C448.8888888888889,-5.666666666666666,457.77777777777777,27.083333333333332,480,30C502.22222222222223,32.916666666666664,511.11111111111114,7.916666666666666,533.3333333333334,10C555.5555555555557,12.083333333333334,564.4444444444446,41.458333333333336,586.6666666666667,40C608.8888888888889,38.541666666666664,617.7777777777778,1.3333333333333335,640,3C662.2222222222222,4.666666666666666,671.1111111111111,45.5,693.3333333333334,48C715.5555555555557,50.5,724.4444444444446,12.916666666666666,746.6666666666667,15C768.8888888888889,17.083333333333332,788.8888888888889,49.041666666666664,800,58" transform="matrix(1,0,0,1,0,403)"></path><path d="M10,10C19.02777777777778,10.833333333333334,33.19444444444444,19.625,53.333333333333336,14C73.47222222222223,8.375,84.44444444444446,-17.833333333333332,106.66666666666667,-17C128.88888888888889,-16.166666666666668,137.77777777777777,15.708333333333334,160,18C182.22222222222223,20.291666666666668,191.11111111111111,-8.083333333333334,213.33333333333334,-6C235.55555555555557,-3.9166666666666665,244.44444444444446,26.541666666666668,266.6666666666667,28C288.8888888888889,29.458333333333332,297.77777777777777,-1.0833333333333335,320,1C342.22222222222223,3.0833333333333335,351.11111111111114,39.041666666666664,373.33333333333337,38C395.5555555555556,36.958333333333336,404.44444444444446,-2.3333333333333335,426.6666666666667,-4C448.8888888888889,-5.666666666666666,457.77777777777777,27.083333333333332,480,30C502.22222222222223,32.916666666666664,511.11111111111114,7.916666666666666,533.3333333333334,10C555.5555555555557,12.083333333333334,564.4444444444446,41.458333333333336,586.6666666666667,40C608.8888888888889,38.541666666666664,617.7777777777778,1.3333333333333335,640,3C662.2222222222222,4.666666666666666,671.1111111111111,45.5,693.3333333333334,48C715.5555555555557,50.5,724.4444444444446,12.916666666666666,746.6666666666667,15C768.8888888888889,17.083333333333332,788.8888888888889,49.041666666666664,800,58" transform="matrix(1,0,0,1,0,372)"></path><path d="M10,10C19.02777777777778,10.833333333333334,33.19444444444444,19.625,53.333333333333336,14C73.47222222222223,8.375,84.44444444444446,-17.833333333333332,106.66666666666667,-17C128.88888888888889,-16.166666666666668,137.77777777777777,15.708333333333334,160,18C182.22222222222223,20.291666666666668,191.11111111111111,-8.083333333333334,213.33333333333334,-6C235.55555555555557,-3.9166666666666665,244.44444444444446,26.541666666666668,266.6666666666667,28C288.8888888888889,29.458333333333332,297.77777777777777,-1.0833333333333335,320,1C342.22222222222223,3.0833333333333335,351.11111111111114,39.041666666666664,373.33333333333337,38C395.5555555555556,36.958333333333336,404.44444444444446,-2.3333333333333335,426.6666666666667,-4C448.8888888888889,-5.666666666666666,457.77777777777777,27.083333333333332,480,30C502.22222222222223,32.916666666666664,511.11111111111114,7.916666666666666,533.3333333333334,10C555.5555555555557,12.083333333333334,564.4444444444446,41.458333333333336,586.6666666666667,40C608.8888888888889,38.541666666666664,617.7777777777778,1.3333333333333335,640,3C662.2222222222222,4.666666666666666,671.1111111111111,45.5,693.3333333333334,48C715.5555555555557,50.5,724.4444444444446,12.916666666666666,746.6666666666667,15C768.8888888888889,17.083333333333332,788.8888888888889,49.041666666666664,800,58" transform="matrix(1,0,0,1,0,341)"></path><path d="M10,10C19.02777777777778,10.833333333333334,33.19444444444444,19.625,53.333333333333336,14C73.47222222222223,8.375,84.44444444444446,-17.833333333333332,106.66666666666667,-17C128.88888888888889,-16.166666666666668,137.77777777777777,15.708333333333334,160,18C182.22222222222223,20.291666666666668,191.11111111111111,-8.083333333333334,213.33333333333334,-6C235.55555555555557,-3.9166666666666665,244.44444444444446,26.541666666666668,266.6666666666667,28C288.8888888888889,29.458333333333332,297.77777777777777,-1.0833333333333335,320,1C342.22222222222223,3.0833333333333335,351.11111111111114,39.041666666666664,373.33333333333337,38C395.5555555555556,36.958333333333336,404.44444444444446,-2.3333333333333335,426.6666666666667,-4C448.8888888888889,-5.666666666666666,457.77777777777777,27.083333333333332,480,30C502.22222222222223,32.916666666666664,511.11111111111114,7.916666666666666,533.3333333333334,10C555.5555555555557,12.083333333333334,564.4444444444446,41.458333333333336,586.6666666666667,40C608.8888888888889,38.541666666666664,617.7777777777778,1.3333333333333335,640,3C662.2222222222222,4.666666666666666,671.1111111111111,45.5,693.3333333333334,48C715.5555555555557,50.5,724.4444444444446,12.916666666666666,746.6666666666667,15C768.8888888888889,17.083333333333332,788.8888888888889,49.041666666666664,800,58" transform="matrix(1,0,0,1,0,310)"></path><path d="M10,10C19.02777777777778,10.833333333333334,33.19444444444444,19.625,53.333333333333336,14C73.47222222222223,8.375,84.44444444444446,-17.833333333333332,106.66666666666667,-17C128.88888888888889,-16.166666666666668,137.77777777777777,15.708333333333334,160,18C182.22222222222223,20.291666666666668,191.11111111111111,-8.083333333333334,213.33333333333334,-6C235.55555555555557,-3.9166666666666665,244.44444444444446,26.541666666666668,266.6666666666667,28C288.8888888888889,29.458333333333332,297.77777777777777,-1.0833333333333335,320,1C342.22222222222223,3.0833333333333335,351.11111111111114,39.041666666666664,373.33333333333337,38C395.5555555555556,36.958333333333336,404.44444444444446,-2.3333333333333335,426.6666666666667,-4C448.8888888888889,-5.666666666666666,457.77777777777777,27.083333333333332,480,30C502.22222222222223,32.916666666666664,511.11111111111114,7.916666666666666,533.3333333333334,10C555.5555555555557,12.083333333333334,564.4444444444446,41.458333333333336,586.6666666666667,40C608.8888888888889,38.541666666666664,617.7777777777778,1.3333333333333335,640,3C662.2222222222222,4.666666666666666,671.1111111111111,45.5,693.3333333333334,48C715.5555555555557,50.5,724.4444444444446,12.916666666666666,746.6666666666667,15C768.8888888888889,17.083333333333332,788.8888888888889,49.041666666666664,800,58" transform="matrix(1,0,0,1,0,279)"></path><path d="M10,10C19.02777777777778,10.833333333333334,33.19444444444444,19.625,53.333333333333336,14C73.47222222222223,8.375,84.44444444444446,-17.833333333333332,106.66666666666667,-17C128.88888888888889,-16.166666666666668,137.77777777777777,15.708333333333334,160,18C182.22222222222223,20.291666666666668,191.11111111111111,-8.083333333333334,213.33333333333334,-6C235.55555555555557,-3.9166666666666665,244.44444444444446,26.541666666666668,266.6666666666667,28C288.8888888888889,29.458333333333332,297.77777777777777,-1.0833333333333335,320,1C342.22222222222223,3.0833333333333335,351.11111111111114,39.041666666666664,373.33333333333337,38C395.5555555555556,36.958333333333336,404.44444444444446,-2.3333333333333335,426.6666666666667,-4C448.8888888888889,-5.666666666666666,457.77777777777777,27.083333333333332,480,30C502.22222222222223,32.916666666666664,511.11111111111114,7.916666666666666,533.3333333333334,10C555.5555555555557,12.083333333333334,564.4444444444446,41.458333333333336,586.6666666666667,40C608.8888888888889,38.541666666666664,617.7777777777778,1.3333333333333335,640,3C662.2222222222222,4.666666666666666,671.1111111111111,45.5,693.3333333333334,48C715.5555555555557,50.5,724.4444444444446,12.916666666666666,746.6666666666667,15C768.8888888888889,17.083333333333332,788.8888888888889,49.041666666666664,800,58" transform="matrix(1,0,0,1,0,248)"></path><path d="M10,10C19.02777777777778,10.833333333333334,33.19444444444444,19.625,53.333333333333336,14C73.47222222222223,8.375,84.44444444444446,-17.833333333333332,106.66666666666667,-17C128.88888888888889,-16.166666666666668,137.77777777777777,15.708333333333334,160,18C182.22222222222223,20.291666666666668,191.11111111111111,-8.083333333333334,213.33333333333334,-6C235.55555555555557,-3.9166666666666665,244.44444444444446,26.541666666666668,266.6666666666667,28C288.8888888888889,29.458333333333332,297.77777777777777,-1.0833333333333335,320,1C342.22222222222223,3.0833333333333335,351.11111111111114,39.041666666666664,373.33333333333337,38C395.5555555555556,36.958333333333336,404.44444444444446,-2.3333333333333335,426.6666666666667,-4C448.8888888888889,-5.666666666666666,457.77777777777777,27.083333333333332,480,30C502.22222222222223,32.916666666666664,511.11111111111114,7.916666666666666,533.3333333333334,10C555.5555555555557,12.083333333333334,564.4444444444446,41.458333333333336,586.6666666666667,40C608.8888888888889,38.541666666666664,617.7777777777778,1.3333333333333335,640,3C662.2222222222222,4.666666666666666,671.1111111111111,45.5,693.3333333333334,48C715.5555555555557,50.5,724.4444444444446,12.916666666666666,746.6666666666667,15C768.8888888888889,17.083333333333332,788.8888888888889,49.041666666666664,800,58" transform="matrix(1,0,0,1,0,217)"></path><path d="M10,10C19.02777777777778,10.833333333333334,33.19444444444444,19.625,53.333333333333336,14C73.47222222222223,8.375,84.44444444444446,-17.833333333333332,106.66666666666667,-17C128.88888888888889,-16.166666666666668,137.77777777777777,15.708333333333334,160,18C182.22222222222223,20.291666666666668,191.11111111111111,-8.083333333333334,213.33333333333334,-6C235.55555555555557,-3.9166666666666665,244.44444444444446,26.541666666666668,266.6666666666667,28C288.8888888888889,29.458333333333332,297.77777777777777,-1.0833333333333335,320,1C342.22222222222223,3.0833333333333335,351.11111111111114,39.041666666666664,373.33333333333337,38C395.5555555555556,36.958333333333336,404.44444444444446,-2.3333333333333335,426.6666666666667,-4C448.8888888888889,-5.666666666666666,457.77777777777777,27.083333333333332,480,30C502.22222222222223,32.916666666666664,511.11111111111114,7.916666666666666,533.3333333333334,10C555.5555555555557,12.083333333333334,564.4444444444446,41.458333333333336,586.6666666666667,40C608.8888888888889,38.541666666666664,617.7777777777778,1.3333333333333335,640,3C662.2222222222222,4.666666666666666,671.1111111111111,45.5,693.3333333333334,48C715.5555555555557,50.5,724.4444444444446,12.916666666666666,746.6666666666667,15C768.8888888888889,17.083333333333332,788.8888888888889,49.041666666666664,800,58" transform="matrix(1,0,0,1,0,186)"></path><path d="M10,10C19.02777777777778,10.833333333333334,33.19444444444444,19.625,53.333333333333336,14C73.47222222222223,8.375,84.44444444444446,-17.833333333333332,106.66666666666667,-17C128.88888888888889,-16.166666666666668,137.77777777777777,15.708333333333334,160,18C182.22222222222223,20.291666666666668,191.11111111111111,-8.083333333333334,213.33333333333334,-6C235.55555555555557,-3.9166666666666665,244.44444444444446,26.541666666666668,266.6666666666667,28C288.8888888888889,29.458333333333332,297.77777777777777,-1.0833333333333335,320,1C342.22222222222223,3.0833333333333335,351.11111111111114,39.041666666666664,373.33333333333337,38C395.5555555555556,36.958333333333336,404.44444444444446,-2.3333333333333335,426.6666666666667,-4C448.8888888888889,-5.666666666666666,457.77777777777777,27.083333333333332,480,30C502.22222222222223,32.916666666666664,511.11111111111114,7.916666666666666,533.3333333333334,10C555.5555555555557,12.083333333333334,564.4444444444446,41.458333333333336,586.6666666666667,40C608.8888888888889,38.541666666666664,617.7777777777778,1.3333333333333335,640,3C662.2222222222222,4.666666666666666,671.1111111111111,45.5,693.3333333333334,48C715.5555555555557,50.5,724.4444444444446,12.916666666666666,746.6666666666667,15C768.8888888888889,17.083333333333332,788.8888888888889,49.041666666666664,800,58" transform="matrix(1,0,0,1,0,155)"></path><path d="M10,10C19.02777777777778,10.833333333333334,33.19444444444444,19.625,53.333333333333336,14C73.47222222222223,8.375,84.44444444444446,-17.833333333333332,106.66666666666667,-17C128.88888888888889,-16.166666666666668,137.77777777777777,15.708333333333334,160,18C182.22222222222223,20.291666666666668,191.11111111111111,-8.083333333333334,213.33333333333334,-6C235.55555555555557,-3.9166666666666665,244.44444444444446,26.541666666666668,266.6666666666667,28C288.8888888888889,29.458333333333332,297.77777777777777,-1.0833333333333335,320,1C342.22222222222223,3.0833333333333335,351.11111111111114,39.041666666666664,373.33333333333337,38C395.5555555555556,36.958333333333336,404.44444444444446,-2.3333333333333335,426.6666666666667,-4C448.8888888888889,-5.666666666666666,457.77777777777777,27.083333333333332,480,30C502.22222222222223,32.916666666666664,511.11111111111114,7.916666666666666,533.3333333333334,10C555.5555555555557,12.083333333333334,564.4444444444446,41.458333333333336,586.6666666666667,40C608.8888888888889,38.541666666666664,617.7777777777778,1.3333333333333335,640,3C662.2222222222222,4.666666666666666,671.1111111111111,45.5,693.3333333333334,48C715.5555555555557,50.5,724.4444444444446,12.916666666666666,746.6666666666667,15C768.8888888888889,17.083333333333332,788.8888888888889,49.041666666666664,800,58" transform="matrix(1,0,0,1,0,124)"></path><path d="M10,10C19.02777777777778,10.833333333333334,33.19444444444444,19.625,53.333333333333336,14C73.47222222222223,8.375,84.44444444444446,-17.833333333333332,106.66666666666667,-17C128.88888888888889,-16.166666666666668,137.77777777777777,15.708333333333334,160,18C182.22222222222223,20.291666666666668,191.11111111111111,-8.083333333333334,213.33333333333334,-6C235.55555555555557,-3.9166666666666665,244.44444444444446,26.541666666666668,266.6666666666667,28C288.8888888888889,29.458333333333332,297.77777777777777,-1.0833333333333335,320,1C342.22222222222223,3.0833333333333335,351.11111111111114,39.041666666666664,373.33333333333337,38C395.5555555555556,36.958333333333336,404.44444444444446,-2.3333333333333335,426.6666666666667,-4C448.8888888888889,-5.666666666666666,457.77777777777777,27.083333333333332,480,30C502.22222222222223,32.916666666666664,511.11111111111114,7.916666666666666,533.3333333333334,10C555.5555555555557,12.083333333333334,564.4444444444446,41.458333333333336,586.6666666666667,40C608.8888888888889,38.541666666666664,617.7777777777778,1.3333333333333335,640,3C662.2222222222222,4.666666666666666,671.1111111111111,45.5,693.3333333333334,48C715.5555555555557,50.5,724.4444444444446,12.916666666666666,746.6666666666667,15C768.8888888888889,17.083333333333332,788.8888888888889,49.041666666666664,800,58" transform="matrix(1,0,0,1,0,93)"></path><path d="M10,10C19.02777777777778,10.833333333333334,33.19444444444444,19.625,53.333333333333336,14C73.47222222222223,8.375,84.44444444444446,-17.833333333333332,106.66666666666667,-17C128.88888888888889,-16.166666666666668,137.77777777777777,15.708333333333334,160,18C182.22222222222223,20.291666666666668,191.11111111111111,-8.083333333333334,213.33333333333334,-6C235.55555555555557,-3.9166666666666665,244.44444444444446,26.541666666666668,266.6666666666667,28C288.8888888888889,29.458333333333332,297.77777777777777,-1.0833333333333335,320,1C342.22222222222223,3.0833333333333335,351.11111111111114,39.041666666666664,373.33333333333337,38C395.5555555555556,36.958333333333336,404.44444444444446,-2.3333333333333335,426.6666666666667,-4C448.8888888888889,-5.666666666666666,457.77777777777777,27.083333333333332,480,30C502.22222222222223,32.916666666666664,511.11111111111114,7.916666666666666,533.3333333333334,10C555.5555555555557,12.083333333333334,564.4444444444446,41.458333333333336,586.6666666666667,40C608.8888888888889,38.541666666666664,617.7777777777778,1.3333333333333335,640,3C662.2222222222222,4.666666666666666,671.1111111111111,45.5,693.3333333333334,48C715.5555555555557,50.5,724.4444444444446,12.916666666666666,746.6666666666667,15C768.8888888888889,17.083333333333332,788.8888888888889,49.041666666666664,800,58" transform="matrix(1,0,0,1,0,62)"></path><path d="M10,10C19.02777777777778,10.833333333333334,33.19444444444444,19.625,53.333333333333336,14C73.47222222222223,8.375,84.44444444444446,-17.833333333333332,106.66666666666667,-17C128.88888888888889,-16.166666666666668,137.77777777777777,15.708333333333334,160,18C182.22222222222223,20.291666666666668,191.11111111111111,-8.083333333333334,213.33333333333334,-6C235.55555555555557,-3.9166666666666665,244.44444444444446,26.541666666666668,266.6666666666667,28C288.8888888888889,29.458333333333332,297.77777777777777,-1.0833333333333335,320,1C342.22222222222223,3.0833333333333335,351.11111111111114,39.041666666666664,373.33333333333337,38C395.5555555555556,36.958333333333336,404.44444444444446,-2.3333333333333335,426.6666666666667,-4C448.8888888888889,-5.666666666666666,457.77777777777777,27.083333333333332,480,30C502.22222222222223,32.916666666666664,511.11111111111114,7.916666666666666,533.3333333333334,10C555.5555555555557,12.083333333333334,564.4444444444446,41.458333333333336,586.6666666666667,40C608.8888888888889,38.541666666666664,617.7777777777778,1.3333333333333335,640,3C662.2222222222222,4.666666666666666,671.1111111111111,45.5,693.3333333333334,48C715.5555555555557,50.5,724.4444444444446,12.916666666666666,746.6666666666667,15C768.8888888888889,17.083333333333332,788.8888888888889,49.041666666666664,800,58" transform="matrix(1,0,0,1,0,31)"></path></g></svg>