<svg width="25" height="25" viewBox="0 0 25 25" fill="none" xmlns="http://www.w3.org/2000/svg">
<g clip-path="url(#clip0_629_575)">
<path d="M21.724 7.34941C22.1797 9.12607 22.1797 12.8349 22.1797 12.8349C22.1797 12.8349 22.1797 16.5438 21.724 18.3205C21.4708 19.3025 20.73 20.0752 19.7918 20.3364C18.0879 20.811 12.2096 20.811 12.2096 20.811C12.2096 20.811 6.33424 20.811 4.62736 20.3364C3.68519 20.0712 2.94541 19.2995 2.69516 18.3205C2.23953 16.5438 2.23953 12.8349 2.23953 12.8349C2.23953 12.8349 2.23953 9.12607 2.69516 7.34941C2.9484 6.36736 3.68918 5.59468 4.62736 5.33346C6.33424 4.85889 12.2096 4.85889 12.2096 4.85889C12.2096 4.85889 18.0879 4.85889 19.7918 5.33346C20.734 5.59867 21.4738 6.37035 21.724 7.34941V7.34941ZM10.2156 16.3245L16.1976 12.8349L10.2156 9.34541V16.3245Z" fill="white"/>
</g>
<defs>
<clipPath id="clip0_629_575">
<rect width="23.9281" height="23.9281" fill="white" transform="translate(0.245514 0.871094)"/>
</clipPath>
</defs>
</svg>
